<svg id="Layer_1" data-name="Layer 1" xmlns="http://www.w3.org/2000/svg" viewBox="0 0 216.92 299.75"><defs><style>.cls-1{fill:#0d0b1c;}.cls-2{fill:#fbe780;}.cls-3{fill:#6e2f25;}.cls-4{fill:#7e392c;}.cls-5{fill:#5b2625;}.cls-6{fill:#f7be36;}.cls-7{fill:#fab559;}.cls-8{fill:#ef8a31;}.cls-9{fill:#faeac7;}</style></defs><path class="cls-1" d="M912.45,287.66v0l0,0ZM200.33,43.78c-18.63.29-5.46-6.42-8.66-9.29-1.41-1.27-.4-5.14-4.29-5.07-.53,0-1.56-1.11-1.54-1.67.14-3-.42-5.12-4.09-5.2-1.18,0-1.06-1.56-1.05-2.49,0-2.49-1.11-3.21-3.46-2.74-1.06.22-10.12-6.85-10.33-7.86a2.37,2.37,0,0,1,0-1c.79-3.6-1.32-3.6-4-3.6Q91.14,5.05,19.4,5.1C16,5.11,11.86,4,11.63,9.69c0,.8-1.49,2-2.48,2.24C3.93,13.25,3.68,17,3.68,21.44q.07,104.49-.05,209c0,17,0,34,0,51,0,3.74.17,7.09,5.43,6.53,2.3-.25,3.3,1.32,3.18,3.49-.15,2.5.8,3.55,3.44,3.55q33.49,0,67,.13c1.63,0,3.14-.12,2.92-2.32-.66-6.55,5.77-7,9-8.58,3.13-1.57,4.12-2.44,4.1-5.65-.2-22-.17-44-.45-66,0-4,1.15-5.56,5.1-5a25.37,25.37,0,0,0,3.49,0q28,0,56-.07c1.86,0,4.46.72,4.45-2.43s.71-5.12,4.39-4.8c1.21.11,1.33-1.16,1.77-2.06.94-1.94,2.17-3.41,4.67-3.79,1.66-.26,4.51-1.6,4.51-2.47,0-5.66,6.11-6.83,7.67-11.1a6.35,6.35,0,0,1,4.92-4.19c2.72-.56,3.43-2,3.45-4.5,0-2.17.85-3.78,3.63-3.53C222.81,175.55,216.08,27.47,200.33,43.78Zm-4.67,112.89c-3.64-.13-7.3.07-10.95.13-.05,5.66-.19,11.32-.1,17,0,2.29-.63,3.39-3,3.42-3.32,0-6.64.38-10,.32-2.9-.05-4.49.88-4.16,4a2.78,2.78,0,0,1,0,.5c-.37,10.65-.37,10.64-10.93,10.63-22.32,0-44.64.12-66.95-.1-4.74-.05-6.29,1.22-6.24,6.12.25,25.14.05,50.29.25,75.44,0,4.33-1.12,5.78-5.58,5.73-14-.15-27.9.63-41.86,0-4.13-.19-8.29.42-12.44.66-2.89.18-4.29-1-4.22-4.08.08-3.48-.13-7-.22-10.47-.86-1.17-.7-2.53-.7-3.85q0-41.22,0-82.44,0-56.71,0-113.45a19.81,19.81,0,0,1,.58-3.37q0-10.65,0-21.3a3,3,0,0,1,0-3.68q0-7.64-.07-15.29a5.61,5.61,0,0,1-.29-.54s.17-.13.26-.2c1-2.54,3.13-1.39,4.76-1.39q57,0,114,.06c3.33,0,6.66-.1,10-.15,6.27-.72,12.53-1.44,18.76.34.65,5-.21,10,1.11,15,4.47.07,8.93.24,13.4.19,2.56,0,3.57,1,3.51,3.53-.09,3.64.09,7.29,0,10.93-.07,2.56,1,3.59,3.54,3.52,2.81-.08,5.63.05,8.45,0,2,0,3.26.56,2.85,2.88l-.6,1.35q0,12.45,0,24.9c1.31,23.21.7,46.44,1,69.67C199.75,155.67,198.66,156.78,195.66,156.67Z"/><path class="cls-2" d="M19.14,62.82q0-10.65,0-21.3l0-3.68q0-7.64-.07-15.28a.45.45,0,0,0,0-.75c1-2.54,3.12-1.39,4.75-1.39q57,0,114,.06c3.33,0,6.66-.1,10-.15l2.68.55c-.09,3.09-.17,6.18-.26,9.27a4.08,4.08,0,0,0-.11,3.48c-.09.37-.19.74-.28,1.11-36.65-.07-73.29,0-109.94-.31-5,0-6.54,1.21-6.51,6.37.2,38.64.1,77.29.08,115.93,0,6.65.3,13.32-.91,19.92H27.05c-6.46,0-6.25,0-6.53,6.51-.25,5.87,1.15,11.82-.85,17.59l-.42-21.07c0-21.82.11-43.63.1-65.44C19.34,97.11,19.22,80,19.14,62.82Z"/><path class="cls-3" d="M184.71,156.8c-.05,5.66-.19,11.32-.1,17,0,2.29-.63,3.39-3,3.42-3.32,0-6.64.38-10,.32-2.9-.05-4.49.88-4.16,4a2.78,2.78,0,0,1,0,.5c-.37,10.65-.37,10.64-10.93,10.63-22.32,0-44.64.12-66.95-.1-4.74-.05-6.28,1.22-6.24,6.12.25,25.14.05,50.3.25,75.44,0,4.33-1.11,5.78-5.58,5.73-14-.15-27.9.63-41.86,0-4.13-.19-8.29.42-12.44.66-2.89.18-4.29-1-4.22-4.08.08-3.48-.13-7-.22-10.47l.33-.3,13-.1c9.79.05,19.58.12,29.38.13,6.51,0,6.48,0,6.49-6.32q0-40.84.12-81.68,38.16,0,76.33.06c1.93,0,4,.62,5.7-1l16-.06c2.49,0,5.07.4,7.43-.12,3.9-.87,8.52-1.41,9.42-6.45,1.94-10.91-.52-13.38-11.46-12.47-2.59.22-3.5,1.27-3.44,3.7.07,2.93,0,5.86,0,8.79l-1-.05V156.72l16.66-.43Z"/><path class="cls-3" d="M198.76,83c1.32,23.21.7,46.44,1,69.67,0,3-1.06,4.15-4.06,4-3.64-.13-7.3.07-10.95.13l-.5-.51.48-54.58c2,2.61,0,5.87,1.4,8.75,1.87-12.93,1-25.68.19-39.06-1.6,3.68.42,7.25-1.58,10.22l-.11-26.91c2.36,3-.25,7.08,1.83,10.3,2.33-1.46-.14-4.5,2.45-5.68C192.4,66.84,199,73,198.19,82.16,198.17,82.41,198.56,82.69,198.76,83Z"/><path class="cls-4" d="M198.76,83c-.2-.27-.59-.55-.57-.8.83-9.2-5.79-15.32-9.32-22.83-2.59,1.18-.12,4.22-2.45,5.68-2.08-3.22.53-7.28-1.83-10.3-4.32-1.77-8.84-.7-13.25-.79-3-.07-4.14-.86-4-4,.18-4.63,0-9.28-.1-13.93l.4-.39c4.47.07,8.93.24,13.4.19,2.56,0,3.57,1,3.51,3.53-.09,3.64.09,7.29,0,10.93-.07,2.56,1,3.59,3.54,3.52,2.82-.08,5.63.05,8.45,0,2,0,3.26.56,2.85,2.88-.2.45-.4.9-.59,1.35Q198.77,70.51,198.76,83Z"/><path class="cls-4" d="M149.77,34.74c.09-.37.19-.74.28-1.11,0-1.16.07-2.32.11-3.48.09-3.09.17-6.18.26-9.27l16.09-.21c.65,5-.21,10,1.11,15l-.4.39c-1.95-.14-3.92-.22-5.87-.44C157.5,35.15,153.51,36.65,149.77,34.74Z"/><path class="cls-5" d="M19.14,62.82c.08,17.14.2,34.29.21,51.43,0,21.81-.06,43.62-.1,65.43a4.58,4.58,0,0,0-.64,0q0-56.71-.05-113.45A19.81,19.81,0,0,1,19.14,62.82Z"/><path class="cls-3" d="M18.61,179.64a4.58,4.58,0,0,1,.64,0l.42,21.08v6c-.46,18.6-.32,37.2.08,55.81-.05,1-.09,2-.14,3l-.33.3c-.86-1.17-.7-2.53-.7-3.85Q18.58,220.86,18.61,179.64Z"/><path class="cls-5" d="M166.51,20.67l-16.09.21-2.68-.55C154,19.62,160.29,18.89,166.51,20.67Z"/><path class="cls-5" d="M19.12,37.84l0,3.68A3,3,0,0,1,19.12,37.84Z"/><path class="cls-5" d="M19,21.81a.45.45,0,0,1,0,.75c-.1-.19-.21-.36-.29-.55C18.75,22,18.93,21.88,19,21.81Z"/><path class="cls-3" d="M198.78,58.06c.19-.45.39-.9.59-1.35C199.17,57.16,199,57.61,198.78,58.06Z"/><path class="cls-6" d="M149.77,34.74c3.74,1.91,7.73.41,11.58.84,2,.22,3.92.3,5.87.44.06,4.65.28,9.3.1,13.93-.12,3.11,1.05,3.9,4,4,4.41.09,8.93-1,13.25.79q.06,13.45.11,26.91,0,10,0,20.09l-.48,54.59-16.66.42c-2.16,6.56-.31,13.31-.92,19.94l-16,.06-83.12,0-33.92,0-1.12-.06c1.21-6.6.91-13.27.91-19.92,0-38.64.12-77.29-.08-115.93,0-5.16,1.54-6.41,6.51-6.37C76.48,34.7,113.12,34.67,149.77,34.74Zm-81,101.85.07,0c0,3,.12,6-.16,9-.42,4.53,1.25,6.11,5.93,6,17.8-.22,35.6-.07,53.4-.07,7.5,0,7.5,0,7.53-7.51,0-5.6,1.33-7,6.9-7.35a31.26,31.26,0,0,1,3.49,0c2.46.13,3.65-.82,3.64-3.45q-.07-30.45,0-60.89c0-2.56-1-3.59-3.56-3.56-3.49,0-7-.15-10.48-.24.39-4.66-1.53-5.88-6.3-5.79-20.06.34-40.13.13-60.19.12-2,1-1.45,2.81-1.45,4.38q0,32.61,0,65.22C67.59,134,67.31,135.53,68.77,136.59Z"/><path class="cls-7" d="M32.49,176.65l1.12.06c-1.35,2.11-1,4.49-1,6.79q-.08,40.59-.1,81.18c-4.25-.73-9.06,1.88-12.78-2.09-.4-18.61-.54-37.21-.08-55.82a3,3,0,0,0,0-4.23v-1.78c2-5.77.6-11.72.85-17.59.28-6.47.07-6.48,6.53-6.51Z"/><path class="cls-6" d="M150.16,30.15c0,1.16-.08,2.32-.11,3.48A4.08,4.08,0,0,1,150.16,30.15Z"/><path class="cls-8" d="M32.53,264.68q0-40.59.1-81.18c0-2.3-.37-4.68,1-6.79l33.92,0,1.09,1q-.06,40.83-.12,81.68c0,6.29,0,6.33-6.49,6.32-9.8,0-19.59-.08-29.38-.13A3.47,3.47,0,0,0,32.53,264.68Z"/><path class="cls-4" d="M166.63,176.66c.61-6.63-1.24-13.38.92-19.94v13.34l1,.05c0-2.93.06-5.86,0-8.79-.06-2.43.85-3.48,3.44-3.7,10.94-.91,13.4,1.56,11.46,12.47-.9,5-5.52,5.58-9.42,6.45C171.7,177.06,169.12,176.65,166.63,176.66Z"/><path class="cls-7" d="M68.62,177.66l-1.09-1,83.12,0c-1.67,1.62-3.77,1-5.7,1Q106.79,177.72,68.62,177.66Z"/><path class="cls-2" d="M32.53,264.68a3.47,3.47,0,0,1,.1.85l-13,.1c.05-1,.09-2,.14-3C23.47,266.56,28.28,264,32.53,264.68Z"/><path class="cls-4" d="M184.69,101.71q0-10,0-20.09c2-3,0-6.54,1.58-10.22.8,13.38,1.68,26.13-.19,39.06C184.71,107.58,186.65,104.32,184.69,101.71Z"/><path class="cls-2" d="M19.67,202.54a3,3,0,0,1,0,4.23Z"/><path class="cls-4" d="M69,62.89c20.06,0,40.13.22,60.19-.12,4.77-.09,6.69,1.13,6.3,5.79l.15,9.12c-.17,3.29-.33,6.57-.5,9.86-.87-1.37-.52-2.91-.55-4.39-.11-6.6-.11-6.79-6.6-6.34-13,.9-25.94.85-38.9.57-4.58-.1-5.6,1.51-5.55,5.75.17,17.83,0,35.66,0,53.49l-14.75,0-.07,0c0-2,.15-4,.15-6Q69,96.75,69,62.89Z"/><path class="cls-2" d="M68.84,136.64l14.75,0c17.33.29,34.65.52,52-.19,2.44-.41,2-2.37,2-3.93q0-25.23,0-50.46c0-1.73-.17-3.35-1.83-4.36l-.15-9.12c3.5.09,7,.28,10.48.24,2.54,0,3.56,1,3.56,3.56q-.07,30.45,0,60.89c0,2.63-1.18,3.58-3.64,3.45a31.26,31.26,0,0,0-3.49,0c-5.57.34-6.88,1.75-6.9,7.35,0,7.51,0,7.52-7.53,7.51-17.8,0-35.6-.15-53.4.07-4.68.06-6.35-1.52-5.93-6C69,142.64,68.8,139.63,68.84,136.64Z"/><path class="cls-7" d="M69,62.89q-.06,33.87-.12,67.73c0,2-.1,4-.15,6-1.46-1.06-1.18-2.64-1.18-4.1q0-32.61,0-65.22C67.59,65.7,67.06,63.85,69,62.89Z"/><path class="cls-1" d="M135.57,136.43c-17.33.71-34.65.48-52,.19,0-17.83.16-35.66,0-53.49,0-4.24,1-5.85,5.55-5.75,13,.28,25.94.33,38.9-.57,6.49-.45,6.49-.26,6.6,6.34,0,1.48-.32,3,.55,4.39,0,2.1,0,4.19,0,6.29l-.32.14.31.53.06,39.32-.31.19.36.56C135.36,135.19,135.46,135.81,135.57,136.43ZM98.76,106.77c0,4.14.08,8.29,0,12.44-.06,2.28.66,3.34,3.1,3.29q7.22-.14,14.43.07c2.59.07,3.46-1,3.42-3.53-.13-8.13-.12-16.26,0-24.39,0-2.36-.87-3.24-3.2-3.21-5,.07-10,.08-14.93-.12-2.4-.1-2.78,1.07-2.76,3C98.79,98.47,98.76,102.62,98.76,106.77Z"/><path class="cls-9" d="M135.16,93.83c0-2.1,0-4.19,0-6.29.17-3.29.33-6.57.5-9.86,1.66,1,1.83,2.63,1.83,4.36q0,25.23,0,50.46c0,1.56.49,3.52-2,3.93-.11-.62-.21-1.24-.31-1.86a.46.46,0,0,0,0-.75l-.06-39.32.22-.33Z"/><path class="cls-4" d="M135.21,133.82a.46.46,0,0,1,0,.75l-.36-.56Z"/><path class="cls-4" d="M135.16,93.83l.21.34-.22.33-.31-.53Z"/></svg>