<svg id="Layer_1" data-name="Layer 1" xmlns="http://www.w3.org/2000/svg" viewBox="0 0 1542.32 491.43"><defs><style>.cls-1{fill:#0d0b1c;}.cls-2{fill:#ef8a31;}.cls-3{fill:#f7be36;}.cls-4{fill:#fbe780;}.cls-5{fill:#6e2f25;}.cls-6{fill:#7e392c;}.cls-7{fill:#090c1e;}.cls-8{fill:#d9bb8c;}.cls-9{fill:#5b2625;}.cls-10{fill:#fab559;}.cls-11{fill:#faeac7;}.cls-12{fill:#c96831;}.cls-13{fill:#b75d3b;}.cls-14{fill:#797e77;}</style></defs><path class="cls-1" d="M1203.32,300.32c1.46-1.77.71-3.86.72-5.77q.06-87.48,0-175c0-3.33,0-6.67.12-10,.22-4.4,5.67-2,7.07-5.25.39-.91,2.31-1.23,2.08-2.91-.61-4.29,2.16-4.42,5.23-4.41,21.16.08,42.32.2,63.48.08,2.9,0,3.4,1,3.36,3.39,0,1.59-.23,4.24,2.09,3.39s6.64,2.69,6.88-2.78c.15-3.35,2-3.93,4.95-3.93q68.73,0,137.47-.14c2.24,0,4,0,3.82,3-.11,1.79.27,3.29,2.62,3.39,1.55.07,2.18,1.06,2.29,2.69,0,.86.91,2.34,1.46,2.37,3.31.18,5.58,1.11,7.41,4.36.66,1.16,2.54,1.84,2.42,4-.08,1.4.49,2.63,2.29,2.6a14.52,14.52,0,0,1,1.46.1c-1.39,7.79,11.22,4.63,9.76,12.48,4.06.26,4.83,2.91,5,6.36,0,.79,1.62.84,2.66.66,1.41-.23,2.43.36,2.26,1.84-.36,3,.59,4.17,3.77,4.08,3-.09,2,2.59,2,4.16.08,15.5.06,31,0,46.49,0,6.83-.09,13.66-.26,20.49,0,2.25-.3,3.8-3.32,5-2.49,1-6.4,3.34-5.93,7.74.09.81.24,2.28-.54,2-5.13-1.73-5.63,5.35-10.26,5.11-2.44-.14-2.34,2.84-1.82,4.82.44,1.64-.15,4.36,3.28,3.62,1.91-.41,3.83-.13,3.12,2.79a4.61,4.61,0,0,0,.12,1.46c5.18-1.55,4.39,5.6,8.57,5.85,2.26.13,1,2.38,1.19,3.67.23,1.78-.28,4,2.58,3.77,3.27-.31,3.36,1.57,3.35,4-.08,21.33,0,42.66-.19,64,0,3.43,1.16,8.29-5.2,7.78-.29,0-.86.22-.86.36-.12,3.7-3.48,4.8-5.2,7.06-2.68,3.52-4.83,7.14-9.11,8.8-1.51.58-1.28,1.76-1.41,2.84-.15,1.33-.62,2.39-2.13,2.11-3.69-.67-4.19,1.06-3.76,4.24.32,2.37.6,5.22-3.08,5.68-.3,0-.78.32-.8.52-.51,5.4-4.61,4.88-8.28,5.09a4.89,4.89,0,0,0-1,.26c1.71,5.43-5.93,5.13-5.88,9.66,0,3.64-2.93,2.47-4.8,2.47q-39.74.15-79.48.13c-18.5,0-37-.1-55.49-.09-2.85,0-4.92.12-5.12-4a5.89,5.89,0,0,0-5.92-5.05c-3.15.09-3.13-1.54-3.13-3.68,0-8,0-16-.12-24,0-1.53.55-3.6-1.78-4.08s-2.67,1.41-3.19,3c0,.15-.21.29-.22.45-.28,4.55-6.08.78-6.6,4.18-.43,2.9,0,5.29-4.27,5.55-3.32.21-1.9,3.95-2.75,6.05-.45,1.09.31,3.14-1.79,2.83-3-.43-3.43,2.7-4.45,3.15-4.31,1.94-7.08,4.31-7.43,9.13-3.92-.5-4.36,1.88-4.78,5-.31,2.43-2.92,1.58-4.63,1.58-21.67,0-43.33,0-65,0-11.16,0-22.33,0-33.49.18-2,0-3-1.48-4.23-2.08-4.18-2-7.88-3.63-7.84-9a3.64,3.64,0,0,0-1.4-.29c-.49,0-1,.26-1.48.13-4.26-1.32-6.77-6.56-12.15-5.42-.5-3.21-1.5-6.44-1.36-9.62s-1.27-4.25-4-3.85c-2.54.38-3.27-.42-3-2.86.36-2.88-.68-4.52-3.94-3.82-2.59.55-3.92,0-3.89-3.21,0-3.41-4.4-6.33-8-5.61,0-1.54-.08-3,0-4.51.16-2.4-.93-3.6-3.23-3-3.87,1-3.94-1.14-3.95-4q0-25.49-.23-51c0-4.15-.49-8.3-.78-12.45-.06-1,.07-2.09-1.32-2.28s-1.76.76-1.72,1.83c.13,4.41-2.23,6.21-6.36,6.29a3,3,0,0,0-1.32.31c.12,5.13-7.21,6-6.52,11.45.23,1.83-.81,2-2.44,2.11-3.18.16-5.45.54-7.25,4.65-1.1,2.51-5.74,4.13-6.13,8.44,0,.23-2.45.34-3.76.34-19.5,0-39,.14-58.49,0-3.86,0-5.1.95-5.05,5,.24,21.82.13,43.65.29,65.48,0,3.87-.42,6.61-5.3,5.85-3-.46-3.67,1.52-3.74,4l0,0c-3.28-.29-4.1,1.71-3.72,4.37.34,2.36-.52,2.76-2.7,2.75q-32.49-.11-65,0c-1.95,0-3.76.08-3.62-2.7.16-3.14-2-3.29-4.32-3.34s-3.28,1.19-3,3.4c.27,2.68-1.23,2.82-3.4,2.81q-76.23-.17-152.47-.2c-2.65,0-5.19.21-4.73-3.7.24-2.05-1.11-2.64-2.83-2.45s-4.48-.78-4.33,1.89c.3,5.36-3.23,4.3-6.21,4.3q-74,0-148,0c-3.5,0-7-.1-10.5.09s-6.4.41-6-4.54c.18-2.1-1.75-2.06-3.27-2-1.85,0-4-.05-3.82,2.65.2,3.6-1.84,3.92-4.71,3.9q-32-.12-64,0c-3,0-4.85-.64-4.39-4.11.31-2.3-.9-2.93-3.05-3.5-3.15-.85-5.08-4.46-9.07-4.12-.94.08-.72-2.33-.73-3.63-.11-7.66-.14-15.33-.29-23,0-1.68.63-4-2.21-4.17-2.2-.11-4.68-.77-5,3-.26,3-3,2.17-4.78,1.87-3.85-.66-5.05.79-4.91,4.53.23,6.33.11,12.67.08,19,0,1.4.3,3.89-1.68,3.41-4.15-1-6.17,2.92-9.61,3.36-2.39.3-1.77,2.57-1.67,4.06.2,2.94-1.06,3.7-3.81,3.63q-32.24-.81-64.47,0c-2.56.06-4.22-.43-3.92-3.53.35-3.58-2.19-3.41-4.63-3.41s-4.9,0-4.5,3.56c.35,3.11-1.39,3.52-3.94,3.49-21.83-.2-43.66-.38-65.49-.41-3,0-3.6-1.09-3.54-3.75,0-1.58.37-3.59-2.51-4-7.49-1.06-7.64-1.21-7.67-8.73q-.16-34.74-.08-69.49c0-12.16.23-24.33.28-36.49,0-1.45.87-3.45-1.93-3.71s-3.63,1.36-3.64,3.53c0,2.52-.72,3.94-3.44,4.5a6.33,6.33,0,0,0-4.92,4.19c-1.57,4.27-7.65,5.44-7.68,11.1,0,.87-2.85,2.21-4.51,2.47-2.5.38-3.73,1.85-4.67,3.79-.43.9-.55,2.17-1.77,2.06-3.68-.32-4.41,1.66-4.39,4.8s-2.59,2.43-4.45,2.43q-28,.08-56,.07a25.52,25.52,0,0,1-3.5,0c-3.94-.56-5.14,1-5.09,5,.27,22,.25,44,.44,66,0,3.21-1,4.08-4.1,5.65-3.28,1.63-9.71,2-9.05,8.58.22,2.2-1.29,2.32-2.92,2.32q-33.5-.09-67-.13c-2.63,0-3.58-1.05-3.44-3.55.12-2.17-.88-3.74-3.18-3.49-5.26.56-5.43-2.79-5.43-6.53,0-17,0-34,0-51q0-104.49,0-209c0-4.46.25-8.19,5.48-9.51,1-.25,2.44-1.44,2.47-2.24.23-5.74,4.36-4.58,7.77-4.59q71.75-.12,143.48-.23c2.68,0,4.8,0,4,3.6a2.55,2.55,0,0,0,0,1c.21,1,9.27,8.08,10.33,7.86,2.35-.47,3.49.25,3.46,2.74,0,.93-.13,2.46,1,2.49,3.67.08,4.23,2.2,4.1,5.2a2.3,2.3,0,0,0,1.54,1.67c3.88-.07,2.88,3.8,4.28,5.07,3.2,2.87,6.61,5.1,8.66,9.29.67,1.36,3.66-.36,3.57-3.35-.2-6.66-.16-13.33-.18-20,0-2.69-.55-4.93,3.49-6.36,1.88-.67,6.89-2.38,6.44-7.13-.2-2.18,1.75-2.1,3.23-2.1,22,0,44,0,66,0,2.76,0,3,1.54,2.91,3.45s-.16,3.85,2.6,3.52c2.45-.3,5.91.29,6.09-3.35.17-3.42,1.88-3.65,4.49-3.64q34,.07,68,0c2.74,0,4.15.76,3.8,3.65-.3,2.5.58,3.81,3.3,3.54.9-.09,2.6-.46,2.49.77-.41,4.4,2.35,4.21,5.29,4.18s1.91,2.21,1.91,3.66c0,11,.22,22-.14,33-.15,4.67,1,6.48,6,6.39,9.16-.17,9.17.11,9.13-9.24q-.06-15.5-.14-31c0-2.74-.17-4.76,3.83-5.42,2.44-.41,5.94-2.7,6.37-6s2-3.48,4.64-3.47c21.66,0,43.33,0,65,0,1.91,0,4.26-.58,4.31,2.58,0,2.39.72,4.38,3.5,4.58a4.78,4.78,0,0,0,5.08-3.89c.57-3.81,2.85-3.34,5.37-3.34q79.49.14,159,.18c2.95,0,5.28,0,5.3,3.9,0,1.86,1.63,3.77,3.15,2.65,1.77-1.3,6.07,1.62,5.52-3.25-.35-3.12,1.51-3.41,4-3.39q32.25.17,64.49.12c2.59,0,3.74.66,3.34,3.38-.16,1.07-.56,2.88.82,3,3,.25,5.62.13,5.7,4.42,0,1.07,2.71.48,4.14.42,2.57-.11,3.7.24,3.69,3.48-.14,61.15-.08,122.31-.2,183.47,0,3.91,1.06,5.11,5,5.06,20.16-.29,40.32-.42,60.49-.28,4.52,0,5.87-1.15,5.85-5.8q-.33-90.75-.23-181.48c0-2.16-1.74-5.83,3-5.78a4.79,4.79,0,0,0,5.41-3.53c1.47-4.56,4.63-4.88,8.58-4.87q50.73.1,101.48,0c12.49,0,25,0,37.49,0,2.67,0,4.36.25,5.3,3.66.81,2.92,3.43,7,5.86,7.45,5.07,1,7.24,5.72,11.65,7.08.19,1.18-.76,3.2,1.24,3.19,3.36,0,2.68,2.13,2.68,4s.72,3.13,2.63,2.7c4-.88,5,1.88,6.29,4.56.45.92.87,2.46,2.38,2.13s1.4-1.83,1.41-2.87c0-5.5-.1-11-.17-16.49-.09-7,.53-8.09,7.34-9.8,2-.51,3.12-1.33,3.06-3.09-.11-3.56,1.87-4,4.75-4,21.67,0,43.33.06,65-.08,3.22,0,4.68.85,4.3,4.19-.15,1.34,0,3.1,1.87,2.8,4.19-.68,3.66,2.54,4.34,4.81,4.12.66,5.11,3,5.09,7.13q-.3,87.69-.2,175.36c0,2.16.17,4.31.27,6.47-.17,1.36-.43,2.77,1.69,2.66C1190,300.91,1196.66,301.25,1203.32,300.32ZM675.53,211.7c-2.19-1.16-4.55-.53-6.82-.56-14.76-.17-29.53-.26-44.29-.38,1.16-1.79,1-3.81,1-5.81,0-10.16.21-20.33-.08-30.48-.12-4.39,1.18-5.67,5.62-5.64,29.15.2,58.31,0,87.46.22,4.91,0,6.18-1.5,6.08-6.22q-.43-22.23,0-44.48c.1-4.95-1.12-6.5-6.33-6.48-40.15.17-80.3,0-120.45-.07-11,0-22,.14-33,.22-3.48-.45-3.49,1.65-3.48,4.28.1,25.6.08,51.19.14,76.79q.08,37.89.21,75.77-.11,44.5-.23,89c0,2.83.18,5.69-.12,8.48-.47,4.38,1.14,5.7,5.58,5.67,24-.21,47.93-.09,71.89-.09h80.37c2.7,0,5.36.37,5.32-3.85-.18-16.31-.17-32.62-.15-48.92,0-3-1.23-4.07-4.18-4.23-3.64-.19-7.23,1.46-10.87.2-3.17,0-6.33-.1-9.49-.11l-74.41-.16q0-18.45.08-36.89c0-7.11,0-7.14,6.88-7.14q27.16,0,54.34.06c2.39,0,4.71.24,4.69-3.38-.09-17.62-.06-35.23-.08-52.85,0-1.8-.44-3.53-2.61-3.53-4.1,0-8.3-1-12.29.8A.69.69,0,0,0,675.53,211.7Zm-228.2-21.52.2-.15-.13-.21c0-8.42-.22-16.85.18-25.26.24-5-1.65-6.42-6.27-5.88a78.57,78.57,0,0,1-8.41.1l-.58-.83c0-11.12.11-22.23.11-33.34,0-14,0-14-14.2-12.34q-24.47-.17-48.94-.35c-2.15,0-2.91.78-2.9,3,.11,12.32.1,24.64.13,37-.07,3.95,0,7.89-.26,11.83-.17,3.11.88,4.53,4.2,4.34,3.93-.23,7.88-.1,11.83-.12.11.28.22.56.32.84,0,2.79-.13,5.59-.12,8.38.1,14.3.11,14.3,14.93,12.78l1.05,1c-.09,6.11-.09,12.23-.31,18.35-.11,2.86,1,3.74,3.77,3.66,4.46-.13,8.92,0,13.39.07l.36,19.75-.08,19.49a2.8,2.8,0,0,1-.2.64c-3.26-.28-6.53-.49-9.78-.85-3.88-.42-5.33,1.18-5.22,5.09.22,8.28.11,16.57.13,24.85a3.29,3.29,0,0,0-.47.81c-3.12,0-6.24.14-9.35,0s-4.45,1-4.35,4.23c.14,4.59-.07,9.19-.13,13.78l-1.52.34c-2.25-.68-3.06.67-4.12,2.39-1.69,2.74-.58,6.05-1.87,9.05-4.85-4.55-5.48-4.33-9.43.37-3,3.59-2.15,8.15-3.81,12,0,14.6.08,29.21-.05,43.81,0,3.42,1.37,4.24,4.46,4.17,6.8-.16,13.62.08,20.42-.08,11.77-.27,23.56.63,35.33-.67,3.08-.34,3.92-1.53,3.88-4.35-.12-8.63-.09-17.27-.12-25.9h0c4.13-.3,8.25-.72,12.39-.84,2.49-.08,3.6-1,3.57-3.55-.13-9.63-.16-19.26-.23-28.89a2.55,2.55,0,0,1,.34-.68c5.71.34,11.5-.94,17.15.82l0,0c-.84,9.61-.15,19.23-.35,28.84-.05,2.59,1.12,3.56,3.6,3.49,3.82-.12,7.63-.1,11.45-.13l.28.15.32,0a.34.34,0,0,0,.33.34.46.46,0,0,0,.1.61c.17,8.81-.17,17.62.46,26.44.3,4,1.92,4.47,5.2,4.39,18.63-.45,37.27.52,55.91-.66,4.46-.29,5.54-1.61,5.59-5.83.18-13.31-.85-26.63.62-39.91.29-2.62-.83-3.64-3.41-3.55-3.82.13-7.65.1-11.48.14h0c.06-6,0-12,.23-17.95.13-3.33-1.26-4.52-4.41-4.23-1.32.12-2.67-.09-4,0-3.43.3-4.86-1.18-4.69-4.63.17-3.65,0-7.32.06-11,0-2.22-.71-3.31-3.11-3.48-3.23-.23-7.4,1.64-9.47-1.1s-.49-6.77-.66-10.24c-.08-1.49,0-3,0-4.49,0-14.1,0-14.1-14-14-3.64-5.62-1.33-11.77-1.55-17.69a1,1,0,0,1,.52-.78c4.54-1,3.19-4.68,3.28-7.57.12-4,0-7.91,0-11.86a72.63,72.63,0,0,1,8.47-.11c4.67.44,6.85-1.11,6.36-6.09a95.09,95.09,0,0,1,0-10c.05-7.07-.85-7.31,7-7,4,.14,5.37-1.55,5.08-5.35-.24-3.14-.16-6.29-.64-9.45-1.28-8.44-.93-8.89,7.61-9.08,3.08-.07,4-1.16,4-4.11.36-10.32.46-10.43,10.68-10.75,2.83-.09,3.63-.88,3.53-3.75-.25-7.46-.13-14.95-.14-22.42,0-14.81,0-14.81-15.07-13.74-16.3-.08-32.6-.07-48.9-.29-3.29,0-3.29,1.63-3.27,4,.1,10.48.08,21,.08,31.45s0,10.67-10.48,10.84c-3.19,0-4.27.86-4.25,4.24.07,9.14.55,18.29-.31,27.42l.06-.05C458,189.92,452.65,189.23,447.33,190.18ZM82.46,271.83q0,41.22,0,82.44c0,1.32-.15,2.68.71,3.85.08,3.49.3,7,.21,10.47-.07,3.07,1.33,4.26,4.22,4.08,4.15-.24,8.31-.85,12.44-.66,14,.65,27.91-.13,41.86,0,4.47.05,5.62-1.4,5.59-5.73-.21-25.15,0-50.3-.25-75.44-.05-4.9,1.49-6.17,6.23-6.12,22.32.22,44.63.09,66.95.1,10.56,0,10.56,0,10.93-10.63a2.78,2.78,0,0,0,0-.5c-.32-3.12,1.26-4,4.16-4,3.32.06,6.64-.29,10-.32,2.39,0,3.05-1.13,3-3.42-.09-5.66,0-11.32.1-17,3.65-.06,7.31-.26,10.95-.13,3,.11,4.09-1,4.06-4-.26-23.23.36-46.46-1-69.67l0-24.9.59-1.35c.41-2.32-.88-2.89-2.85-2.88-2.82,0-5.63-.11-8.44,0-2.52.07-3.62-1-3.55-3.52.09-3.64-.09-7.29,0-10.93.06-2.53-.95-3.56-3.51-3.53-4.46.05-8.93-.12-13.4-.19-1.32-4.92-.46-10-1.11-15-6.22-1.78-12.49-1.06-18.76-.34-3.33,0-6.66.16-10,.15q-57,0-114-.06c-1.62,0-3.79-1.15-4.75,1.39-.1.07-.28.17-.27.2a5.61,5.61,0,0,0,.29.54q0,7.65.07,15.29a3,3,0,0,0,0,3.68q0,10.65,0,21.3a19.81,19.81,0,0,0-.58,3.37Q82.41,215.11,82.46,271.83ZM833.54,315c-5.42,0-10.89-.47-16.26.07-4.36.44-8.62,1.3-13,.12-.3-28.44,0-56.87-.63-85.32-.7-32.94-.19-65.9-.12-98.85,0-5,.43-10,.68-14.92.14-2.91-1.07-4.34-4.11-4.18-3.65.19-7.31.24-11,.34l-1.66,0c-14.4-.64-28.8-.71-43.2,0-3.41-.49-5.28.32-4.69,4.42.43,2.93,0,6,0,9-.12,1.82-.35,3.64-.35,5.46q0,37.48,0,75,.11,79.92.25,159.85c0,6.54.24,6.76,6.72,6.77,10.49,0,21-.47,31.44-.63,24.49-.38,49-.11,73.48-.11,11.83,0,23.66-.06,35.49-.06,2.44,0,4.64.11,4.62-3.49-.1-16.66-.08-33.32,0-50,0-2.55-.94-3.65-3.53-3.54-3.83.16-7.66.16-11.49.23Zm622.66-91.11-.27-7.12c.44-.44.87-.89,1.3-1.33,3.49.13,7,.24,10.45.4,2.43.12,3.71-.74,3.67-3.41-.19-14.64-.3-29.29-.44-43.93,0-7.42,1.13-14.87-.55-22.25l-1-.23-4-.12-8,.11c-1.71-1.18-2-2.88-2-4.82.09-3.49,0-7,.1-10.48.09-2.55-1-3.54-3.51-3.63-3.63-.14-8.12,1.53-10.66-.77-2.84-2.58-.7-7.26-1-11-.16-1.84-.35-3.42-2.67-3.3-4.12.2-8.32-.82-12.33.88a3.46,3.46,0,0,0-1-.27q-60.67,0-121.36,0c-2.73,0-2.85,1.09-2.82,3.24.12,7.83.06,15.65.07,23.48q.11,64.66.2,129.34,0,44.57-.1,89.12c0,2.5-.09,5-.07,7.49,0,6.56.06,6.58,6.57,6.58q56.93,0,113.87,0a105.16,105.16,0,0,0,14.93-.73c3.14-.45,3.78-1.79,3.77-4.52,0-7.16.14-14.32.23-21.48,4.3,0,8.61-.2,12.91,0,2.22.09,2.9-.61,2.94-2.74.07-4,.37-7.92.57-11.88v0c3.94.87,7.94.28,11.91.45,2.66.11,3.39-1.27,3.38-3.68q-.06-30.39,0-60.76c0-2.47-.8-3.73-3.44-3.61-4,.19-7.95.23-11.93.34a1.35,1.35,0,0,1-.62-.31c1.69-3.8.61-7.84,1-11.76.32-3.24-1.08-4.23-4.27-4.32-13.18-.38-13.18-.48-12.63-13.62,0-.66.14-1.32.22-2l1.57-.22c2.45,1.41,5.14.76,7.71.79C1456.57,231.88,1456.57,231.82,1456.2,223.89Zm-354.63,93.9c-.06,3.12.06,6.26-.22,9.36-.35,3.79,1.31,4.85,4.86,4.7s7.23-.48,10.79.41c0,3.46.24,6.92.08,10.37-.14,3.28,1.28,4.36,4.41,4.23,4-.16,7.9,0,11.86,0,.43,4-.9,8.14.88,12,.07,2,.18,4,.21,6,.08,7,.07,7,7.1,7q49.65,0,99.31-.05c8.92,0,8.92,0,9.6-8.68.11-1.48.25-3,.37-4.44.67-4,.41-7.95.27-11.93a3.54,3.54,0,0,0,.32-.93c2.8,0,5.6-.1,8.4-.11,9.8,0,8.43.94,8.63-8.29,0-2.13.23-4.26.35-6.39a78.89,78.89,0,0,1,9.47-.14c4.82.49,6.14-1.29,6.13-6.12q-.23-100-.08-200.1c0-3.16,0-6.32,0-9.48,0-1.86-.45-3.41-2.7-3.32-4,.16-8-.69-11.85.83-1.29-1.17-2.86-.63-4.31-.63-13.5,0-27,.19-40.49-.17-4.61-.12-5.78,1-5.76,5.67q.3,98.49.23,197l-52.94.13c.33-8.08.26-16.14.21-24.23-.33-55.24-.27-110.47-.29-165.71,0-14.07.08-14.07-14.11-12.48-.88-.41-1.76-.8-2.61.07l-2.52.1c-.22-.51-.41-.45-.58,0l-29.47,0a8.57,8.57,0,0,0-6.45,0l-4.62-.09a2.69,2.69,0,0,0-3.3,0c-2.69,1.2-1.23,3.54-1.23,5.27q0,75.09.1,150.2C1101.25,284.49,1101.07,301.14,1101.57,317.79Zm-818-49.13-.14,89.11c0,1.83,0,3.67-.06,5.5,0,9.44,0,9.53,9.23,9.42,16.64-.19,33.29-.66,49.93-.67,4.5,0,6-1.18,5.94-5.87-.24-28.49-.17-57-.2-85.47,0-15.83.41-31.68-.18-47.49-.79-20.81-.7-41.61-.1-62.41.09-2.91-.81-4-3.55-4-3.67,0-7.34,0-11,0-.56-.29-1.11-.84-1.67-.84-15.32-.09-30.64-.08-46-.22-2.42,0-2.56,1-2.55,3Q283.5,218.7,283.6,268.66Zm753-155.85q-63.67-.12-127.35-.32c-3.35,0-3.21,1.47-3.19,3.88.12,16.81.11,33.63.15,50.44l.24,101.89,0,89.13c0,3.33,0,6.66-.12,10-.14,2.92.88,4.22,4,4.2q28-.15,55.91-.06c3,0,4.22-1.08,4.06-4.09-.33-6-.67-11.95-.71-17.92-.13-20.12-.19-40.23.62-60.35.16-3.77,1.38-4.78,5-4.76,21.46.1,42.93,0,64.39,0,14.78,0,14.78,0,13.59-15.18a3.27,3.27,0,0,1,.44-.8c4.13,0,8.25,0,12.37.07,2.47.06,3.57-.91,3.61-3.47.09-5.6.39-11.19.6-16.78h0c3.49.09,7,0,10.47.32,3.88.37,4.75-1.31,4.71-4.91-.16-18.47-.1-36.95-.1-55.43,0-12.48-.07-25,.08-37.45,0-3.46-1.15-4.85-4.63-4.58s-7,.24-10.47.34l-.88-1.09c0-.5.09-1,.09-1.5.29-16.08.29-16.08-15.84-15.55a8.79,8.79,0,0,0-.34-.9c0-3.93,0-7.87.16-11.8.09-2.55-1.06-3.54-3.52-3.47C1045.47,112.74,1041,112.76,1036.61,112.81ZM285.43,150.59c20,.8,39.92.33,59.88.17,2.88,0,3.12-1.75,3.11-4,0-10.16-.08-20.31,0-30.47,0-3.29-1.41-4.48-4.51-4.34-3.49.15-7,.16-10.47.24-15.26,0-30.52,0-45.77-.09-2.92,0-4.46.28-4.35,4,.31,10.44.13,20.9.15,31.35C283.51,148.87,283,150.63,285.43,150.59ZM401.34,233c-1.86-.69-5.37,1.17-5.46-1.66-.12-3.79-2-7.08-2-10.68,0-2.33-.76-3-2.78-3-1.83,0-3.67,0-5.49.15-2.89.24-4.33-.74-4.23-3.9.15-4.32,0-8.66,0-13,0-8.85,0-9-8.66-8.92-3.44,0-4.73-1-4.56-4.52.22-5-.05-10-.1-15A2.18,2.18,0,0,0,365.6,170c-1.76-.06-2.33.88-2.33,2.46,0,1.16-.07,2.33-.07,3.5q0,61,0,122a37.92,37.92,0,0,0,.17,4c.16,1.48,1.9,2.34,2.33,1.5,1.51-2.91,4.86-2,6.55-3.6,2.17-2,.74-5.33.95-8.07a54,54,0,0,0,.12-9c-.26-2.84.62-3.53,3.28-2.88,1.26.3,2.68-.06,4,.14,3.7.57,4.61-1.36,4.55-4.57-.08-4.16,0-8.33.1-12.49.06-3.65-1.1-8.14.6-10.76,2.12-3.28,7-1,10.69-1.24,3.23-.18,4.34-1.35,4.29-4.55-.07-4.49.32-9,.52-13.48,2.37.37,2.09,2.22,2.11,3.86,0,2.66.18,5.34,0,8-.3,4,2.14,4.1,5.08,4.13s5.15-.31,5-4.22c-.23-6.16-.06-12.32-.06-18.48,0-11.11,0-11.11-11.27-11.34h-1c-3.92,0-5.74-2.06-5.73-5.92s-.1-7.66,0-11.48c.1-2.95-.53-4.93-4.07-4.61-3.26.3-7.55-1.26-7.88,4.24-.2,3.32-.09,6.66-.08,10,0,8.12-.72,8,7.34,7.75,2.9-.07,4,.7,4.94,3.9C397.08,223.57,396.2,229.56,401.34,233ZM724.5,245.18h0c0-18.82-.08-37.65.07-56.47,0-3.48-.52-5-4.55-4.94-25.15.22-50.3.19-75.46.11-3,0-4.4.72-4.08,3.86a16.22,16.22,0,0,1-.06,4c-.63,4.16,1,5.38,5.19,5.29,14-.3,28-.1,42-.32,3.55-.05,5.46.7,4.8,4.65-.58,3.5,1.43,4.37,4.41,4.13,1-.08,2-.09,3-.23,3.94-.55,5.8.24,5.73,5.11-.27,18.65,0,37.31.1,56,0,6.58,0,6.75-6.76,6.53-3.43-.11-5.07.81-4.57,4.45.15,1.14-.17,2.34,0,3.48.48,3.71-1,4.88-4.75,4.84-13.16-.16-26.32,0-39.48.06-9.91.07-8.53-1.82-8.87,9.09-.13,4.24,1.59,4.88,5.25,4.86,23.15-.13,46.31-.07,69.46-.1,3.11,0,6.65-.81,6,4.37a1.32,1.32,0,0,0,1.45,1.59c1.1-.08,1.11-1.06,1.16-1.86.07-1.33.1-2.67.1-4Q724.51,272.43,724.5,245.18ZM546,236.54h-.42v-33c0-10.16.09-20.32,0-30.48,0-1.39.76-3.59-1.85-3.9s-2.62,1.87-2.6,3.3c0,2.22-.66,3-2.84,2.9-1.71-.07-2.12,1.24-2.11,2.75,0,2-.05,4-.06,6,0,7.17,0,7.31-7.27,7.48-3.32.07-4.78,1.08-4.64,4.64.21,5.32,0,10.66-.06,16-.07,6.68-.15,6.85-6.73,6.13-2-.22-3.72-.26-3.14,2.12,1.37,5.62-5.46,7.13-5.64,11.88,0,.23-.81.6-1.25.62-3.33.19-4.26,3.2-5.85,5.22s-1.11,4.57,1.67,5a3.48,3.48,0,0,1,3.2,4.11c-.27,3.32,1.41,3.59,3.87,3.49,2-.09,4,.09,6-.14,3.11-.36,4.1.89,4,3.94-.23,4.82-.1,9.66-.13,14.49-.06,9.79-.06,9.88,9.68,10.09,2.71.06,3.92.77,3.81,3.68-.17,4.33.19,8.67,0,13-.13,2.92,1.15,3.76,3.78,3.87,1.93.09,4.05-.68,5.76.71.74.61.21,2.78,2,2.1,1.62-.6.85-2.32.86-3.54Q546.05,267.77,546,236.54ZM387.42,266.75c0,2.82.33,5.69-.07,8.45-.77,5.37,2.77,5.35,6.29,5.46,3.71.12,3.69-2.71,3.74-5.18.1-6.13-.13-12.27.09-18.4.14-3.81-1.81-4.28-4.92-4.29-3.27,0-5.52.41-5.18,4.52C387.63,260.44,387.42,263.6,387.42,266.75Z"/><path class="cls-1" d="M976.3,379.87l0,0Z"/><path class="cls-2" d="M478.4,341.93a.46.46,0,0,1-.1-.61c2.81-.13,5.61-.34,8.42-.37,6.65-.07,6.31-.05,6.76-6.89.34-5.13-1.41-6.95-6.41-6.29a15,15,0,0,1-5.41-.39c-2.51-.6-3.3.33-3.32,2.71,0,3.63-.24,7.26-.37,10.89l-.32,0-.28-.15c.06-9.61.07-19.22.2-28.83,0-2.52-.92-3.67-3.48-3.58-3.8.12-7.61.14-11.42.21l0,0a.93.93,0,0,0,.17-.65c3-.07,6-.32,8.95-.17s4.22-.3,3.68-3.74a112.19,112.19,0,0,1-1-13.36,4,4,0,0,0-4.58-4.14c-3.7.39-5.85-1.45-8-3.75-4.32-3.32-9.61-1.81-14.4-2.8-2.46-.51-2.31,1.74-2.29,3.39q.15,12.21.35,24.4a2.55,2.55,0,0,0-.34.68c-3.63.07-7.27.35-10.89.15-3.14-.17-4.05,1.11-3.87,4a71.68,71.68,0,0,1,0,8.42c-.39,6.89.85,13.85-.94,20.68h0c-3.83-.11-7.65-.15-11.48-.36-2.52-.14-3.65.79-3.56,3.42.12,3.49-.11,7,0,10.49.11,2.57-.8,3.55-3.42,3.51-12.16-.2-24.31-.26-36.46-.36,5.1-.09,6.28-2.73,6-7.6-.46-8.62-.11-17.29-.1-25.94l1.93-.19c3.13,0,6.28-.23,9.39.06,4.2.39,5.58-1,5.78-5.43.27-6.32-3.5-12-2.18-18.33,1.64-.92,3.34-.69,5.06-.31,3.24-1.15,6.48.14,9.73.09,3.74-.07,5.45-1.2,5.27-5.15-.21-4.59,0-9.21,0-13.81l.26-3.08c.26.41.47,1.13.79,1.19.79.13,1,0,.88-.95-1-5.67,2.06-6.8,6.81-6.25,1.46.17,3-.06,4.44,0,2.75.17,3.85-1.06,3.8-3.79-.08-5.75.23-11.51-1-17.19l.3-3.12c2.23-.65,1.67-2.53,1.7-4.06.11-4.23.11-8.46.16-12.7,4.23-.26,9.35.37,12.08-2.81,3.21-3.74,5.77-2.93,9.28-1.57,6.57,2.54,13.06,5.46,20.35,5.29,0,5.05,0,10.11.09,15.16,0,1.74-.38,3.68,1.63,4.77,4-1.13,8.17-.11,12.22-.82,1.07,8.59.25,17.23.53,25.84.08,2.45.31,4.1,3.46,4.06s7.5-1.55,9.58.7.58,6.65.66,10.08c.19,8.61-.7,7.14,7.05,7.24,6.82.09,6.82,0,6.76,6.75,0,.66,0,1.33,0,2,.27,4.58-2.17,10.56.6,13.36s8.84.58,13.45.91h0c-.24,10.47-.63,20.94-.63,31.41,0,3.33-1,4.33-4.23,4.3q-14.47-.11-28.94.2c-2.86.06-4.06-.56-4.17-3.78-.14-4.34,2.4-10.26-1.25-12.62-3.18-2.06-8.69-.53-13.17-.58C478.73,341.88,478.57,341.92,478.4,341.93Z"/><path class="cls-2" d="M625.33,314.85l74.41.16c3.16,0,6.32.07,9.48.11l-.23.4c-1.81.11-3.63.3-5.45.3q-42.82,0-85.66.07c-2.09,0-4.33-.68-6.25.8-.07,1.49-.18,3-.19,4.49-.09,7.65-.08,7.64,7.39,7.65l90.43.06-.12,2.05c-2.21.76-1.59,2.67-1.61,4.23-.07,5.15-.38,10.34.05,15.46S706,357,701.09,357c-41.91-.17-83.82-.08-125.73-.07l0-.05-.09-88.11h.09l34,.05c0,12.72.06,25.45.18,38.17,0,2.6-.63,5.3.71,7.79Z"/><path class="cls-3" d="M475.28,232.91c-7.29.17-13.78-2.75-20.35-5.29-3.51-1.36-6.07-2.17-9.28,1.57-2.73,3.18-7.85,2.55-12.08,2.81-.05-2.49.08-5-.17-7.47-.39-3.86,1.27-7.94-1.16-11.59a3.66,3.66,0,0,0-.81,0l-5-.33c-1.39-4.05-.72-8.26-1-12.39-.68-9.43-.67-9.43-10.08-9.34-5.6-2.44-11.21.06-16.82-.06l-1.05-1q0-10.56-.1-21.14c0-2,.12-4,.11-5.93,0-11.62-2.12-13.39-13.75-11.68a4.65,4.65,0,0,0-1.33.64,2.94,2.94,0,0,1-.93-.09,2.72,2.72,0,0,0-.06-.9c0-6.5.14-13-.14-19.49-.17-4,.92-5.69,5.26-5.53,8.15.31,16.33.19,24.49,0,2.73,0,4.86.63,6.35,3q.06,14.56.11,29.13c1.77,5.29,6.19,2.55,9.37,2.8,3.37.26,4.73,1.16,4.63,4.67-.2,7.14,0,14.28-.07,21.43,0,4.14,2,6.08,6.09,6,3.32,0,6.65,0,10,0-.32,4.11,1.08,8.15.46,12.3-1.39,9.31-.44,10.3,8.87,9.58a18.75,18.75,0,0,0,2-.25c2.38-.42,3.94-1.48,3.71-4.26-.52-6.46.92-12.83,1-19.26,0-.4,0-.8-.05-1.2l-.06.05,1.24,0c2.83,0,5.67-.18,8.47.11,4.7.48,6.55-1.19,6.39-6.12-.28-8.29,0-16.6.1-24.91l0,0a62.63,62.63,0,0,1,7-.1c4.54.4,6.24-1.35,6-6-.32-7.47.05-15-.14-22.46-.09-3.47,1.11-4.68,4.6-4.61,10.15.19,20.3.11,30.45.14l1.07.89a7.2,7.2,0,0,1,.88.33c0,6-.09,12,0,17.92.07,4-1.62,5.72-5.64,5.8-3.42.07-7-.89-10.27.74-1.42,6.36-.83,12.8-.28,19.14.4,4.63-1.07,5.5-5.34,5.49-5.17,0-10.5-1.39-15.56.88-1.39,1.58-.77,3.5-.83,5.27-.32,10.15.5,20.31-.39,30.46l-14.35.24c-1.79,1.09-1.28,2.89-1.3,4.47C475.33,222.67,475.32,227.79,475.28,232.91Z"/><path class="cls-4" d="M561.63,268.86q-.12-37.87-.22-75.77c-.06-25.6,0-51.19-.14-76.79,0-2.63,0-4.73,3.47-4.28,2.48.17,5,.49,7.45.5q66.24.11,132.47.06c3.76,0,5.5.62,4.91,4.8a80.75,80.75,0,0,0-.29,9.48c-2.3-1.34-4.84-1-7.32-1q-59.75,0-119.49,0c-7.16,0-7.16,0-7.16,6.95v136h-.07l-11.84.16Z"/><path class="cls-4" d="M83,155q0-10.65,0-21.3L83,130q0-7.64-.07-15.28a.45.45,0,0,0,0-.75c1-2.54,3.13-1.39,4.75-1.39q57,0,114,.06c3.33,0,6.66-.1,10-.15l2.67.55q-.14,4.64-.25,9.27a4,4,0,0,0-.12,3.48c-.09.37-.18.74-.28,1.11-36.64-.07-73.29,0-109.93-.31-5,0-6.55,1.21-6.52,6.36.2,38.65.1,77.3.08,115.94,0,6.65.3,13.32-.91,19.92H90.9c-6.46,0-6.25,0-6.53,6.51-.25,5.87,1.15,11.82-.85,17.59l-.42-21.08c0-21.81.12-43.62.1-65.43C83.19,189.3,83.07,172.15,83,155Z"/><path class="cls-5" d="M333.47,166.82c3.66,0,7.33,0,11,0,2.74,0,3.64,1.05,3.55,4-.6,20.8-.69,41.6.1,62.41.59,15.81.16,31.66.18,47.49,0,28.49,0,57,.2,85.47,0,4.69-1.44,5.87-5.94,5.87-16.64,0-33.29.48-49.93.67-9.28.11-9.28,0-9.23-9.42,0-1.83,0-3.67.06-5.5h13.7c11,0,21.91,0,32.86.14,3.09,0,3.51-1.38,3.5-3.93q-.18-42.59-.25-85.16c0-3.5.13-7,.12-10.49q-.12-38.73-.29-77.47c0-.53,0-1.06-.05-1.59Z"/><path class="cls-5" d="M248.56,249c-.05,5.66-.19,11.32-.1,17,0,2.29-.62,3.39-3,3.42-3.33,0-6.65.38-10,.32-2.9,0-4.48.88-4.16,4a2.78,2.78,0,0,1,0,.5c-.37,10.65-.37,10.64-10.93,10.63-22.32,0-44.63.12-66.95-.1-4.74-.05-6.28,1.22-6.23,6.12.24,25.14,0,50.29.25,75.44,0,4.33-1.12,5.78-5.59,5.73-14-.15-27.9.63-41.86,0-4.13-.19-8.29.42-12.44.66-2.89.18-4.29-1-4.22-4.08.09-3.48-.13-7-.21-10.47l.33-.3,13-.1c9.79,0,19.58.12,29.38.13,6.51,0,6.48,0,6.49-6.32q0-40.84.12-81.68,38.16,0,76.33.06c1.94,0,4,.62,5.71-1l16-.06c2.48,0,5.06.4,7.43-.13,3.89-.86,8.52-1.4,9.41-6.44,1.94-10.91-.51-13.38-11.46-12.47-2.59.22-3.5,1.27-3.44,3.7.07,2.93,0,5.86,0,8.79l-1-.05V248.91l16.66-.43Z"/><path class="cls-5" d="M1053.13,269.64c1.19,15.18,1.19,15.17-13.59,15.18-21.46,0-42.93.11-64.39,0-3.6,0-4.82,1-5,4.76-.81,20.12-.75,40.23-.62,60.35,0,6,.38,11.95.71,17.92.16,3-1.06,4.1-4.06,4.09q-28-.09-55.91.06c-3.1,0-4.12-1.28-4-4.2.16-3.32.09-6.65.12-10h13.81c10,.08,20,0,30,.33,4.18.15,5.31-1.17,5.28-5.31-.18-25.65.08-51.3-.24-77-.06-5.3,1.58-6.19,6.43-6.16C992.17,269.89,1022.65,269.71,1053.13,269.64Z"/><path class="cls-5" d="M1269.73,112.76c3.86-1.52,7.89-.67,11.85-.83,2.25-.09,2.7,1.46,2.7,3.32,0,3.16,0,6.32,0,9.48q0,100.05.08,200.1c0,4.83-1.31,6.61-6.13,6.12a78.89,78.89,0,0,0-9.47.14l-.59-.36c.41-36.89,1-73.78,1.19-110.68.16-31.41-.12-62.83-.2-94.25,0-.32,0-.65,0-1Q1269.44,118.79,1269.73,112.76Z"/><path class="cls-2" d="M1053.13,269.64c-30.48.07-61,.25-91.44.1-4.85,0-6.49.86-6.43,6.16.32,25.65.06,51.3.24,77,0,4.14-1.1,5.46-5.28,5.31-10-.36-20-.25-30-.33,0-.33,0-.66.07-1l0-88,132.67,0,.28.09.27-.07A3.27,3.27,0,0,0,1053.13,269.64Z"/><path class="cls-5" d="M876.24,315.1c3.83-.07,7.66-.07,11.49-.23,2.59-.11,3.54,1,3.53,3.54,0,16.66-.07,33.32,0,50,0,3.6-2.18,3.48-4.62,3.49-11.83,0-23.66.05-35.49.06-24.49,0-49-.27-73.48.11-10.48.16-21,.66-31.44.63-6.48,0-6.71-.23-6.72-6.77q-.13-79.92-.25-159.85-.06-37.5,0-75c0-1.82.23-3.64.35-5.46.84,5.12.43,10.27.45,15.41q.21,63.89.38,127.75-.09,38.19-.16,76.37c0,13.48,0,13.48,13.78,12.61,17.79.08,35.57.2,53.36.24,21.45,0,42.9-.05,64.35.1,3.5,0,4.61-1.07,4.5-4.53-.25-8-.16-15.95-.2-23.93v-14A1.72,1.72,0,0,0,876.24,315.1Z"/><path class="cls-5" d="M709.28,126.86a80.75,80.75,0,0,1,.29-9.48c.59-4.18-1.15-4.8-4.91-4.8q-66.24.14-132.47-.06c-2.49,0-5-.33-7.45-.5,11-.08,22-.23,33-.22,40.15,0,80.3.24,120.45.07,5.21,0,6.43,1.53,6.33,6.48q-.42,22.23,0,44.48c.1,4.72-1.17,6.26-6.08,6.22-29.15-.22-58.31,0-87.46-.22-4.44,0-5.74,1.25-5.62,5.64.29,10.15.08,20.32.08,30.48,0,2,.13,4-1,5.81l0,.48-10.68.06-2.29-.22q0-28,.08-56.09l7.94-.07h18l14.89,0h4.07c16.56,0,33.12,0,49.69.12,2.55,0,3.5-.69,3.43-3.34C709.34,143.41,709.35,135.14,709.28,126.86Z"/><path class="cls-5" d="M709.14,330.94l.12-2.05q0-5.07-.07-10.14c-.07-1.08-.13-2.15-.2-3.23l.23-.4c3.65,1.26,7.24-.39,10.88-.2,2.95.16,4.18,1.26,4.18,4.23,0,16.3,0,32.61.15,48.92,0,4.22-2.62,3.85-5.32,3.85H638.74c-24,0-47.92-.12-71.89.09-4.44,0-6.05-1.29-5.58-5.67.3-2.79.1-5.65.12-8.48l13.83-.18q63.6.06,127.18.18c4.51,0,7.63.57,6.16-6.2S710.09,337.92,709.14,330.94Z"/><path class="cls-5" d="M789.17,112.26c3.66-.1,7.32-.15,11-.34,3-.16,4.25,1.27,4.11,4.18-.25,5-.67,10-.68,14.92-.07,32.95-.58,65.91.12,98.85.6,28.45.33,56.88.62,85.32l-14.65-.31q-.17-23-.34-46,.07-45.12.14-90.25c0-16.62-.11-33.23-.18-49.85l0-6.1C789.22,119.2,789.2,115.73,789.17,112.26Z"/><path class="cls-5" d="M1152.27,112.31c14.19-1.59,14.11-1.59,14.11,12.48,0,55.24,0,110.47.29,165.71,0,8.09.12,16.15-.21,24.23l-14.09.35c-.78-.5-.79-1.31-.84-2.11.07-.13.22-.27.21-.4a6.28,6.28,0,0,0-.23-.85c0-.58,0-1.17,0-1.76,1-1.86.68-3.9.68-5.87q0-85.42,0-170.85c0-1.81.33-3.67-.59-5.39l-.24-2,.21,0a1.32,1.32,0,0,0,.07-2l0-5c.89-1.6.68-3.29.38-5a1.3,1.3,0,0,1,.11-.67A6.42,6.42,0,0,0,1152.27,112.31Z"/><path class="cls-4" d="M1152.15,113.19a1.2,1.2,0,0,0-.1.67,7.19,7.19,0,0,0-.39,5c0,1.68,0,3.35,0,5,0,.68,0,1.36-.07,2l-.21,0c-10.23,0-20.46,0-30.69,0-1.75,0-3.68-.58-5.14,1q-.06,71-.11,142l-.06,0a53.67,53.67,0,0,1-6.47-.05c-4.46-.56-5.71,1.31-5.59,5.63.28,10.45.12,20.91.1,31.36,0,11.24,0,11.24,11.35,11.25l.19.18-12.08.38c-1-1.68-.63-3.54-.63-5.33,0-11.39.16-22.78.09-34.17,0-3.42.64-6.93-.71-10.28q-.09-75.1-.1-150.2c0-1.73-1.46-4.07,1.23-5.27a4.53,4.53,0,0,0,3.3,0l4.61.09a15,15,0,0,0,6.46,0l29.46,0,.3.17.29-.19,2.52-.1Z"/><path class="cls-5" d="M625.33,314.85l-15.12-.07c.25-17.63.71-35.26.61-52.88,0-4.79,1.46-5.7,5.87-5.62,18.29.32,36.6.32,54.9.29,1.26,0,4.08,1.8,3.84-1.85q0-14.41,0-28.83l-.23-11.24c.09-.62.18-1.24.28-1.86l.88-.87c4-1.79,8.19-.8,12.29-.8,2.17,0,2.61,1.73,2.61,3.53,0,17.62,0,35.23.08,52.85,0,3.62-2.3,3.38-4.69,3.38q-27.17,0-54.34-.06c-6.88,0-6.87,0-6.88,7.14Q625.38,296.41,625.33,314.85Z"/><path class="cls-5" d="M1439.59,345.15c-.09,7.16-.25,14.32-.23,21.48,0,2.73-.63,4.07-3.77,4.52a105.16,105.16,0,0,1-14.93.73q-56.94,0-113.87,0c-6.51,0-6.53,0-6.57-6.58,0-2.5,0-5,.07-7.49l13.82-.1c35.46.05,70.93,0,106.39.22,4.73,0,3.84-2.88,3.85-5.62,0-9-.64-7.45,7.27-7.55l7.49-.11C1439.28,344.8,1439.43,345,1439.59,345.15Z"/><path class="cls-5" d="M478.4,341.93c.17,0,.33-.05.5-.05,4.48.05,10-1.48,13.17.58,3.65,2.36,1.11,8.28,1.25,12.62.11,3.22,1.31,3.84,4.17,3.78q14.46-.3,28.94-.2c3.2,0,4.24-1,4.23-4.3,0-10.47.39-20.94.63-31.41,3.83,0,7.66,0,11.48-.14,2.58-.09,3.7.93,3.41,3.55-1.47,13.28-.44,26.6-.62,39.91,0,4.22-1.13,5.54-5.59,5.83-18.64,1.18-37.28.21-55.91.66-3.28.08-4.9-.35-5.2-4.39C478.23,359.55,478.57,350.74,478.4,341.93Z"/><path class="cls-5" d="M492.29,177.11c5.06-2.27,10.39-.91,15.56-.88,4.27,0,5.74-.86,5.34-5.49-.55-6.34-1.14-12.78.28-19.14,4.48.08,9,0,13.45.3,2.87.18,3.73-.82,3.65-3.65-.22-7.8-.19-15.61-.25-23.42q.06-6.35.11-12.71c15.07-1.07,15.06-1.07,15.07,13.74,0,7.47-.11,15,.14,22.42.1,2.87-.7,3.66-3.53,3.75-10.22.32-10.32.43-10.68,10.75-.1,2.95-1,4-4,4.11-8.54.19-8.89.64-7.61,9.08.48,3.16.4,6.31.64,9.45.29,3.8-1,5.49-5.08,5.35-7.86-.26-7,0-7,7a95.09,95.09,0,0,0,0,10c.49,5-1.69,6.53-6.36,6.09a72.63,72.63,0,0,0-8.47.11l-.33-.48c-.12-11.28,1-22.58-.61-33.84C492.48,178.83,492.38,178,492.29,177.11Z"/><path class="cls-5" d="M1250.82,358.74c-.12,1.48-.26,3-.37,4.44-.68,8.65-.68,8.67-9.6,8.68q-49.66,0-99.31.05c-7,0-7,0-7.1-7,0-2-.14-4-.21-6,6.06-1.21,12.12-.29,18.21-.21,25.89.31,51.8.13,77.7.1,1.78,0,3.68.42,5.28-.85C1240.58,357.72,1245.77,356.8,1250.82,358.74Z"/><path class="cls-5" d="M1070.22,146.94c3.49-.1,7-.07,10.47-.34s4.68,1.12,4.63,4.58c-.15,12.49-.09,25-.08,37.45,0,18.48-.06,37,.1,55.43,0,3.6-.83,5.28-4.71,4.91-3.47-.32-7-.23-10.47-.32q-.11-42.15-.2-84.28C1070,158.56,1070.13,152.75,1070.22,146.94Z"/><path class="cls-5" d="M262.61,175.15c1.32,23.21.7,46.44,1,69.67,0,3-1.06,4.15-4.06,4-3.64-.13-7.3.07-10.95.13l-.5-.51.48-54.58c2,2.61,0,5.87,1.41,8.75,1.86-12.93,1-25.68.18-39.06-1.59,3.68.42,7.25-1.58,10.22l-.1-26.91c2.35,3-.26,7.08,1.82,10.3,2.33-1.46-.14-4.5,2.45-5.68,3.53,7.51,10.16,13.63,9.32,22.83C262,174.6,262.41,174.88,262.61,175.15Z"/><path class="cls-5" d="M374.52,358.53c12.15.1,24.3.16,36.46.36,2.62,0,3.53-.94,3.42-3.51-.15-3.49.08-7,0-10.49-.09-2.63,1-3.56,3.56-3.42,3.83.21,7.65.25,11.48.36,0,8.63,0,17.27.12,25.9,0,2.82-.8,4-3.88,4.35-11.77,1.3-23.56.4-35.33.67-6.8.16-13.62-.08-20.42.08-3.09.07-4.5-.75-4.46-4.17.13-14.6.05-29.21.05-43.81a5.11,5.11,0,0,1,.78,0c0,10.06-.07,20.12,0,30.18,0,1.29-.9,3.14,1.43,3.57l.33.09.32-.12Z"/><path class="cls-4" d="M285.44,150.59c-2.4,0-1.93-1.72-1.93-3.14,0-10.45.16-20.91-.15-31.35-.11-3.68,1.43-4,4.35-4,15.25.11,30.51.07,45.77.09q-.15,7.29-.28,14.59c-7.54-2-15.23-.88-22.83-.84-13,.07-13,.27-13,13.16,0,1.66.12,3.34,0,5-.26,3.3.82,4.8,4.47,4.73,10.47-.21,20.95-.1,31.42-.11-1.16,2.54-3.45,1.3-5.17,1.33C313.86,150.39,299.64,149.37,285.44,150.59Z"/><path class="cls-5" d="M1455.92,263.21c4-.11,8-.15,11.93-.34,2.64-.12,3.45,1.14,3.44,3.61q-.06,30.38,0,60.76c0,2.41-.72,3.79-3.38,3.68-4-.17-8,.42-11.91-.45C1455.11,308.05,1455.18,285.63,1455.92,263.21Z"/><path class="cls-5" d="M531.29,323c-4.61-.33-10.64,1.92-13.45-.91s-.33-8.78-.6-13.36c0-.66,0-1.33,0-2,.06-6.72.06-6.66-6.76-6.75-7.75-.1-6.86,1.37-7.05-7.24-.08-3.43,1.54-7.69-.66-10.08s-6.32-.74-9.58-.7-3.38-1.61-3.46-4.06c-.28-8.61.54-17.25-.53-25.84l2-.11c14-.12,14-.12,14,14,0,1.5-.07,3,0,4.49.17,3.47-1.35,7.57.66,10.24s6.24.87,9.47,1.1c2.4.17,3.16,1.26,3.11,3.48-.07,3.65.11,7.32-.06,11-.17,3.45,1.26,4.93,4.69,4.63,1.32-.12,2.67.09,4,0,3.15-.29,4.54.9,4.41,4.23C531.29,311,531.35,317,531.29,323Z"/><path class="cls-6" d="M1465.29,145.9l4,.12c.13.6.27,1.2.4,1.8.86-.26.54-1,.65-1.57,1.68,7.38.57,14.83.56,22.26-1.2-3.06-.23-6.27-.63-9.38-.11-.88-.37-1.74-1.32-1.86s-1.37.66-1.62,1.52c-.63,2.23-1.1,5.57-3.4,5.62-5.08.09-4.75,3.71-5.45,6.73a51,51,0,0,0-1.26,12.35c.12,10.65,0,21.3,0,31.95-.43.44-.86.89-1.3,1.33-3.47,0-7,0-10.43,0-1.61,0-3.33.37-3.5,2.07-.31,3.31,1.35,6.57.12,10.06-.34.95,1.85.76,2.94.9,2.74.35,5.64-.8,8.23.91l-12.11.26-1.57.22a4.29,4.29,0,0,1-.37-.5c-.09-3.46.12-6.9-.86-10.33s.42-5.27,4.2-5.07c3.15.17,6.31,0,9.46.23,2.47.15,3.67-.6,3.66-3.29q-.14-31.64-.1-63.28c0-2.34-.83-3.21-3.21-3.16-4.31.1-8.63-.08-12.94-.14,0-4.62-.1-9.25.14-13.86.16-3.28-1.2-4.28-4.31-4.35-3.57-.09-7.23.89-10.72-.59,0-.72-.09-1.43-.13-2.15q.42-5.92.83-11.85c4-1.7,8.21-.68,12.33-.88,2.32-.12,2.51,1.46,2.67,3.3.33,3.74-1.81,8.42,1,11,2.54,2.3,7,.63,10.66.77,2.53.09,3.6,1.08,3.51,3.63-.13,3.49,0,7-.1,10.48,0,1.94.25,3.64,2,4.82A8.11,8.11,0,0,0,1465.29,145.9Zm-6.56,5.2c-.71.13-1.18.56-1.11,1.26a1.27,1.27,0,0,0,.79.93,1.13,1.13,0,0,0,1.36-1C1459.91,151.57,1459.46,151.18,1458.73,151.1Z"/><path class="cls-5" d="M1457.23,215.44c0-10.65.13-21.3,0-31.95a51,51,0,0,1,1.26-12.35c.7-3,.37-6.64,5.45-6.73,2.3,0,2.77-3.39,3.4-5.62.25-.86.64-1.65,1.62-1.52s1.21,1,1.32,1.86c.4,3.11-.57,6.32.63,9.38.13,14.63.24,29.28.43,43.92,0,2.67-1.24,3.53-3.67,3.41C1464.2,215.68,1460.72,215.57,1457.23,215.44Z"/><path class="cls-7" d="M401.34,233c-5.14-3.4-4.26-9.39-5.64-14.24-.91-3.2-2-4-4.94-3.9-8.06.2-7.31.37-7.34-7.75,0-3.33-.12-6.67.08-10,.33-5.5,4.62-3.94,7.88-4.24,3.54-.32,4.17,1.66,4.07,4.61-.14,3.82,0,7.65,0,11.48s1.81,5.9,5.73,5.92h1c11.27.23,11.27.23,11.27,11.34,0,6.16-.17,12.32.06,18.48.14,3.91-2,4.25-5,4.22s-5.38-.12-5.08-4.13c.21-2.65.06-5.33,0-8,0-1.64.26-3.49-2.11-3.86Z"/><path class="cls-5" d="M417.43,157.9q0-14.57-.11-29.13l.09-4,.82-12.52c14.16-1.64,14.19-1.64,14.2,12.34,0,11.11-.07,22.22-.11,33.34A58,58,0,0,1,417.43,157.9Z"/><path class="cls-5" d="M333.2,126.82q.14-7.3.28-14.59c3.49-.08,7-.09,10.47-.24,3.1-.14,4.55,1.05,4.51,4.34-.12,10.16-.07,20.31,0,30.47,0,2.21-.23,3.94-3.11,4-20,.16-39.92.63-59.87-.17,14.2-1.22,28.42-.2,42.63-.51,1.72,0,4,1.21,5.17-1.33A198.06,198.06,0,0,0,333.2,126.82Z"/><path class="cls-8" d="M1269.73,112.76q-.3,6-.59,12.06c-2.29-1.23-1.79-3.45-1.64-5.34.31-3.83-1.43-4.82-5-4.78q-18.23.24-36.47,0c-3.73,0-4.87,1.27-4.86,4.93q.18,74.69.17,149.36,0,23,0,45.94l-1.57-.14-.35-.18q-.06-98.49-.23-197c0-4.67,1.15-5.79,5.76-5.67,13.49.36,27,.13,40.49.17C1266.87,112.13,1268.44,111.59,1269.73,112.76Z"/><path class="cls-9" d="M491.26,251.91l-2,.11c-4.05.71-8.21-.31-12.22.82q-.19-8.4-.38-16.8c1.65-6,.57-12.19.68-18.29.05-3,.92-4.06,4-4,4,.11,7.95.59,11.89-.25l.33.48c0,4,.12,7.91,0,11.86-.09,2.89,1.26,6.53-3.28,7.57a1,1,0,0,0-.52.78C489.93,240.14,487.62,246.29,491.26,251.91Z"/><path class="cls-5" d="M1439.61,231.22c-.08.66-.19,1.32-.22,2-.55,13.14-.55,13.24,12.63,13.62,3.19.09,4.59,1.08,4.27,4.32-.38,3.92.7,8-1,11.76-1.83.1-3.65.26-5.48.3-11.33.21-11.27.2-11.3-10.94,0-1.71,1.32-4-1.38-5.14-4.51-.64-10.83,2.06-13.12-1.07s-.79-9.13-.92-13.87a5.63,5.63,0,0,1,.35-1.4c5.26.18,10.53.65,15.79-.05A3.5,3.5,0,0,0,1439.61,231.22Z"/><path class="cls-10" d="M1070.22,146.94c-.09,5.81-.26,11.62-.26,17.43q.06,42.13.2,84.28h0l-16.68.27c2-4,5.64-2,8.38-1.89,4.46.09,5.66-1.41,5.63-5.77-.18-27.48-.1-55-.1-82.44,0-9.72,0-9.81-9.64-10-4.37-.07-6.48-1.91-6.38-6.32.07-2.83,0-5.66,0-8.5,0-2-.76-3.34-2.89-3.16-9.3.75-18.19-3.33-27.55-2.13a68.13,68.13,0,0,1-9.48.05c-1.62,0-3.48.34-4-2h28.92c5.54,2,11.3.33,16.91,1.05a8.79,8.79,0,0,1,.34.9c-.07,4.65,0,9.31-.25,13.95-.12,2.71,1,3.43,3.53,3.32,4.15-.19,8.31-.16,12.47-.22Z"/><path class="cls-5" d="M429.41,341.83c1.79-6.83.55-13.79.94-20.68a71.68,71.68,0,0,0,0-8.42c-.18-2.92.73-4.2,3.87-4,3.62.2,7.26-.08,10.89-.15.07,9.63.1,19.26.23,28.89,0,2.58-1.08,3.47-3.57,3.55C437.66,341.11,433.54,341.53,429.41,341.83Z"/><path class="cls-6" d="M262.61,175.15c-.2-.27-.59-.55-.57-.8.84-9.2-5.79-15.32-9.32-22.83-2.59,1.18-.12,4.22-2.45,5.68-2.08-3.22.53-7.28-1.82-10.3-4.32-1.77-8.84-.7-13.26-.79-3-.07-4.14-.86-4-4,.19-4.63,0-9.28-.1-13.93l.4-.39c4.47.07,8.94.24,13.4.19,2.56,0,3.57,1,3.51,3.53-.09,3.64.09,7.29,0,10.93-.07,2.56,1,3.59,3.55,3.52,2.81-.08,5.62,0,8.44,0,2,0,3.26.56,2.85,2.88l-.59,1.35Q262.62,162.7,262.61,175.15Z"/><path class="cls-5" d="M462.67,308.65c3.81-.07,7.62-.09,11.42-.21,2.56-.09,3.51,1.06,3.48,3.58-.13,9.61-.14,19.22-.2,28.83-3.82,0-7.63,0-11.45.13-2.48.07-3.65-.9-3.6-3.49C462.52,327.88,461.83,318.26,462.67,308.65Z"/><path class="cls-5" d="M432.9,158.78a78.57,78.57,0,0,0,8.41-.1c4.62-.54,6.51.9,6.27,5.88-.4,8.41-.15,16.84-.18,25.26-3.77,1-7.62.15-11.42.47-2.71.22-3.41-1-3.36-3.54C432.79,177.43,432.82,168.1,432.9,158.78Z"/><path class="cls-6" d="M1250.82,358.74c-5-1.94-10.24-1-15.4-.78l-.13-.17c0-.93-.07-1.85-.1-2.78,1.06-9.77,1.06-9.89,11.45-9.91,3.36,0,4.89-.85,4.65-4.46-.22-3.29.09-6.62.17-9.94l16.74,0,.59.36c-.12,2.13-.3,4.26-.35,6.39-.2,9.23,1.17,8.24-8.63,8.29-2.8,0-5.6.07-8.4.11-.46.18-.65.47-.32.93C1251.23,350.79,1251.49,354.78,1250.82,358.74Z"/><path class="cls-9" d="M445.48,307.87q-.18-12.19-.35-24.4c0-1.65-.17-3.9,2.29-3.39,4.79,1,10.08-.52,14.4,2.8.16,2,.37,3.94.45,5.91.25,6.41-.51,12.86.53,19.25a.93.93,0,0,1-.17.65C457,306.93,451.19,308.21,445.48,307.87Z"/><path class="cls-6" d="M415.68,278.84c-.09,1-.18,2.05-.26,3.08l-14.89,0c0-8.28.09-16.57-.13-24.85-.11-3.91,1.34-5.51,5.22-5.09,3.25.36,6.52.57,9.78.85a.62.62,0,0,1,.66.31,142.61,142.61,0,0,0-.16,20.67C415.83,275.46,415.75,277.15,415.68,278.84Z"/><path class="cls-11" d="M906.46,268.7l-.24-101.89c0-16.81,0-33.63-.15-50.44,0-2.41-.16-3.9,3.19-3.88q63.68.3,127.35.32-.16,5.89-.34,11.8c-1.32-1.39-1-3.18-.82-4.75.41-4-1.28-5.12-5.16-5.11q-58.95.15-117.9,0c-4,0-5.09,1.34-5.08,5.21q.16,74.43.08,148.88l0,.07A5.63,5.63,0,0,1,906.46,268.7Z"/><path class="cls-11" d="M1425.26,112.89q-.42,5.92-.83,11.85c-1-.84-1-2-1-3.19-.4-6.74-.41-6.74-6.89-6.74l-107.35,0c-5.33,0-7.34,1.88-7.77,7.21-.12,1.49,0,3,0,4.49l-.12,142.3a2.41,2.41,0,0,1-.84-.16q-.11-64.67-.2-129.34c0-7.83,0-15.65-.07-23.48,0-2.15.09-3.24,2.82-3.24q60.69.12,121.36,0A3.46,3.46,0,0,1,1425.26,112.89Z"/><path class="cls-12" d="M398.47,190.83c5.61.12,11.22-2.38,16.82.06l.21,21.71-.19.31c-4.46,0-8.92-.2-13.38-.07-2.74.08-3.88-.8-3.77-3.66C398.38,203.06,398.38,196.94,398.47,190.83Z"/><path class="cls-3" d="M415.68,278.84c.07-1.69.15-3.38.22-5.07a90.44,90.44,0,0,0,.16-20.67.62.62,0,0,0-.66-.31,2.8,2.8,0,0,0,.2-.64l15.81-.27c1.22,5.68.91,11.44,1,17.19.05,2.73-1,4-3.8,3.79-1.47-.09-3,.14-4.44,0-4.75-.55-7.78.58-6.81,6.25.16.92-.09,1.08-.88.95C416.15,280,415.94,279.25,415.68,278.84Z"/><path class="cls-11" d="M333.47,166.82l-.42,12.45c-2.29-1.94-1.43-4.62-1.53-7-.09-2.18-.79-3.55-3.18-3.47-5.49.18-10.87-1.08-16.38-1.14-6.35-.07-12.56,1.17-18.88,1.14-7.69,0-7.69,0-7.71,7.95l-.21,91.88-1.56.05q-.14-50-.31-99.91c0-1.95.13-3,2.55-3,15.32.14,30.64.13,46,.22C332.36,166,332.91,166.53,333.47,166.82Z"/><path class="cls-10" d="M395.36,301.1c-1.32,6.33,2.45,12,2.18,18.33-.2,4.47-1.58,5.82-5.78,5.43-3.11-.29-6.26-.06-9.39-.06.05-6.07.14-12.15.11-18.22,0-2.22.07-4.28,2.23-5.57l1.52-.34Z"/><path class="cls-5" d="M1053.47,248.93l16.68-.27c-.21,5.59-.51,11.18-.6,16.78,0,2.56-1.14,3.53-3.61,3.47-4.12-.09-8.24-.05-12.37-.07l-.27.07-.28-.09Z"/><path class="cls-13" d="M426.39,212.62l5,.33q.13,7.44.26,14.88v2l-.36,2c-5.13,1.84-10.42.7-15.64.78l-.36-19.75.18-.31A43.61,43.61,0,0,0,426.39,212.62Z"/><path class="cls-6" d="M397.32,168.74q0,10.57.1,21.14c-14.82,1.52-14.83,1.52-14.93-12.78,0-2.79.08-5.59.12-8.38Z"/><path class="cls-5" d="M415.68,232.66c5.22-.08,10.51,1.06,15.64-.78l.45,3.89,0,2.14v1.88l0,9-.3,3.12-15.81.27Q415.65,242.4,415.68,232.66Z"/><path class="cls-8" d="M418.23,112.27q-.41,6.27-.82,12.52c-2.75-.9-2-3.27-1.81-5.05.32-4-1.43-5.12-5.24-5.06-11.94.19-23.89.24-35.84,0-4.27-.08-5.44,1.51-5.28,5.51.26,6.46,0,12.94.09,19.41.21,11.72-2.45,11.7,12,11.19a2.72,2.72,0,0,1,.06.9l-14.89.16c0-12.33,0-24.65-.14-37,0-2.17.75-3,2.9-3Q393.76,112.14,418.23,112.27Z"/><path class="cls-11" d="M789.17,112.26c0,3.47.05,6.94.08,10.4-2.11-.47-1.79-2.2-1.69-3.61.24-3.26-1.17-4.39-4.37-4.35-12.65.13-25.29.13-37.93.08-2.7,0-4,.93-3.92,3.76.11,2.33,0,4.66,0,7q-.06,71.61-.11,143.22a5.22,5.22,0,0,1-.79,0q-.2-63.87-.38-127.75c0-5.14.39-10.29-.45-15.41,0-3,.44-6,0-9-.59-4.1,1.28-4.91,4.69-4.42a412.26,412.26,0,0,0,43.2,0Z"/><path class="cls-6" d="M1235.42,358c-1.6,1.27-3.5.85-5.28.85-25.9,0-51.81.21-77.7-.1-6.09-.08-12.15-1-18.21.21-1.78-3.9-.45-8-.88-12,.33-.35.66-.7,1-1a25,25,0,0,1,3.45-.17c3.3.25,6.89-1.72,9.75-.08,3.44,2,0,6.22,1.74,9.09-1.89,4.72,2,3.05,3.68,3.06,27.44.08,54.88.05,82.32.05Z"/><path class="cls-10" d="M400.53,281.88l14.89,0c0,4.6-.21,9.22,0,13.81.18,3.95-1.53,5.08-5.27,5.15-3.25.05-6.49-1.24-9.73-.09l-.36-18.1A3.29,3.29,0,0,1,400.53,281.88Z"/><path class="cls-7" d="M387.42,266.75c0-3.15.21-6.31-.05-9.44-.34-4.11,1.91-4.54,5.18-4.52,3.11,0,5.06.48,4.92,4.29-.22,6.13,0,12.27-.09,18.4-.05,2.47,0,5.3-3.74,5.18-3.52-.11-7.06-.09-6.29-5.46C387.75,272.44,387.42,269.57,387.42,266.75Z"/><path class="cls-5" d="M1069.34,145.85c-4.16.06-8.32,0-12.47.22-2.49.11-3.65-.61-3.53-3.32.22-4.64.18-9.3.25-13.95,16.13-.53,16.13-.53,15.84,15.55C1069.43,144.85,1069.37,145.35,1069.34,145.85Z"/><path class="cls-4" d="M397.32,168.74l-14.71,0c-.1-.28-.21-.56-.32-.84l.06-16.11a4.65,4.65,0,0,1,1.33-.64c11.63-1.71,13.72.06,13.75,11.68C397.44,164.79,397.36,166.76,397.32,168.74Z"/><path class="cls-10" d="M1437.14,247.12c2.7,1.09,1.37,3.43,1.38,5.14,0,11.14,0,11.15,11.3,10.94,1.83,0,3.65-.2,5.48-.3a1.35,1.35,0,0,0,.62.31c-.74,22.42-.81,44.84.09,67.26v0l-16.55-.07c2-2.8,4.86-1.35,7.3-1.43,6.62-.24,6.64-.11,6.65-6.52q0-20.37,0-40.74c0-4.05,1-8.54-3.85-10.9,1.56-.44,3.79-.64,3.33-2.81s-2.32-3-4.55-3.16c-3.43-.24-7.7,1.48-10.07-1s-1-7-.9-10.57-1.45-4.69-4.76-4.46c-2.58.18-5.18,0-7.77,0C1428.93,247.2,1433.16,248.7,1437.14,247.12Z"/><path class="cls-5" d="M382.35,151.77l-.06,16.11c-4,0-7.9-.11-11.83.12-3.32.19-4.37-1.23-4.2-4.34.21-3.94.19-7.88.27-11.83l14.89-.15A2.94,2.94,0,0,0,382.35,151.77Z"/><path class="cls-6" d="M1036.27,124.61q.17-5.89.34-11.8c4.43,0,8.86-.07,13.28-.18,2.46-.07,3.61.92,3.52,3.47-.13,3.93-.11,7.87-.16,11.8-5.61-.72-11.37.95-16.91-1.05Z"/><path class="cls-6" d="M400.06,282.69l.36,18.1c-1.72-.38-3.42-.61-5.06.31l-9.13-.43c.06-4.59.27-9.19.13-13.78-.1-3.23,1.2-4.41,4.35-4.23S396.94,282.69,400.06,282.69Z"/><path class="cls-8" d="M530.43,112.12q0,6.36-.11,12.71c-.24.06-.48.1-.72.14,0-1.33-.1-2.66-.11-4-.08-7.3-.85-8.47-8-8-12.27.88-24.53.64-36.8.72-3.6,0-5.46,1.38-5.4,5.36.18,13.28.13,26.56.17,39.85l0,0c-3.22.49-6.12,2.43-9.58,1.87-3.81-.62-4.7,1.43-4.69,4.91,0,8.05.6,16.13-.69,24.14l-1.24,0c.86-9.13.38-18.28.31-27.42,0-3.38,1.06-4.19,4.25-4.24,10.48-.17,10.49-.29,10.48-10.84s0-21-.08-31.45c0-2.4,0-4.07,3.27-4C497.83,112.05,514.13,112,530.43,112.12Z"/><path class="cls-5" d="M1134.35,345.84c-.34.34-.67.69-1,1-4,0-7.91-.18-11.86,0-3.13.13-4.55-.95-4.41-4.23.16-3.45,0-6.91-.07-10.37.11-.15.23-.29.35-.43,4.43,0,8.87.07,13.3-.1,2.65-.1,3.48.89,3.24,3.47C1133.56,338.75,1132.73,342.36,1134.35,345.84Z"/><path class="cls-6" d="M213.62,126.93c.1-.37.19-.74.28-1.11l.12-3.48q.12-4.64.25-9.27l16.09-.21c.65,5-.21,10,1.11,15l-.4.39c-1.95-.14-3.92-.22-5.86-.44C221.35,127.34,217.36,128.84,213.62,126.93Z"/><path class="cls-9" d="M384.71,301c-2.16,1.29-2.25,3.35-2.23,5.57,0,6.07-.06,12.15-.11,18.22l-1.93.19a67.21,67.21,0,0,0-14.18-.09,5.11,5.11,0,0,0-.78,0c1.66-3.88.8-8.44,3.81-12,3.95-4.7,4.58-4.92,9.43-.37,1.29-3,.18-6.31,1.87-9.05C381.65,301.68,382.46,300.33,384.71,301Z"/><path class="cls-5" d="M1439.46,330.45l16.55.07c-.2,4-.5,7.92-.57,11.88,0,2.13-.72,2.83-2.94,2.74-4.3-.19-8.61,0-12.91,0-.16-.17-.31-.35-.48-.52Q1439.29,337.55,1439.46,330.45Z"/><path class="cls-5" d="M1102.84,317.62l12.08-.38c2.89,1,2.06,3.38,2,5.39-.11,3.09-1,6.19.46,9.2-.12.14-.24.28-.35.43-3.57-.89-7.21-.56-10.8-.41s-5.21-.91-4.86-4.7c.28-3.1.16-6.24.22-9.36Z"/><path class="cls-8" d="M283.6,268.66l1.56-.05.25.32c0,25.41-.08,50.82,0,76.23,0,11.87-2.08,11.77,11.89,11.75a1.58,1.58,0,0,1-.13.86h-13.7Q283.52,313.22,283.6,268.66Z"/><path class="cls-8" d="M575.22,357.69l-13.83.18.24-89,1.77.07q0,37.9,0,75.82c0,12.12,0,12.12,12,12.13l0,.05A3.28,3.28,0,0,1,575.22,357.69Z"/><path class="cls-5" d="M1453.29,230.75c-2.59-1.71-5.49-.56-8.23-.91-1.09-.14-3.28,0-2.94-.9,1.23-3.49-.43-6.75-.12-10.06.17-1.7,1.89-2.07,3.5-2.07,3.48,0,7,0,10.43,0l.27,7.11C1454,225.64,1457.2,229.71,1453.29,230.75Z"/><path class="cls-8" d="M789.66,314.88l14.65.31c4.35,1.18,8.61.32,13-.12,5.37-.54,10.84-.09,16.26-.07,1.79.18,3.58.5,5.37.51,12.38.08,24.77.09,37.15.13v14h-.74l-1-.78h0c0-1.16.08-2.33.09-3.49,0-8.52,0-8.53-8.64-8.55l-76.32-.15Z"/><path class="cls-9" d="M83,155c.08,17.14.2,34.29.21,51.43,0,21.81-.06,43.62-.1,65.43a4.58,4.58,0,0,0-.64,0q0-56.71,0-113.45A19.81,19.81,0,0,1,83,155Z"/><path class="cls-10" d="M432.9,158.78c-.08,9.32-.11,18.65-.28,28-.05,2.5.65,3.76,3.36,3.54,3.8-.32,7.65.52,11.42-.47l.13.21-.2.15.12,1.67,0,1c-3.32,0-6.65,0-10,0-4.1,0-6.12-1.9-6.09-6,0-7.15-.13-14.29.07-21.43.1-3.51-1.26-4.41-4.63-4.67-3.18-.25-7.6,2.49-9.37-2.8a58,58,0,0,0,14.89,0Z"/><path class="cls-8" d="M906.46,268.7a5.63,5.63,0,0,0,.91.18l.06,75.3c0,12.83,0,12.83,12.89,12.66,0,.33-.05.66-.07,1H906.43Z"/><path class="cls-8" d="M1300.39,268.67a2.41,2.41,0,0,0,.84.16l.22.32q0,37.49-.09,75c0,12.85,0,12.85,12.88,12.75a2.18,2.18,0,0,1-.13.84l-13.82.1Q1300.34,313.22,1300.39,268.67Z"/><path class="cls-5" d="M82.46,271.83a4.58,4.58,0,0,1,.64,0L83.52,293c0,.59,0,1.19,0,1.78V299c-.46,18.6-.31,37.2.08,55.81,0,1-.09,2-.13,3l-.33.3c-.86-1.17-.71-2.53-.71-3.85Q82.43,313.05,82.46,271.83Z"/><path class="cls-13" d="M1152.37,315.08l14.09-.35,52.94-.13.35.18-.46,1.36q-26.36-.72-52.71,0C1161.89,315.18,1157,316.76,1152.37,315.08Z"/><path class="cls-4" d="M624.42,210.76c14.76.12,29.53.21,44.29.38,2.27,0,4.63-.6,6.82.56l-.27.31q-22.78,0-45.58-.08c-1.78,0-3.65.42-5.3-.69Z"/><path class="cls-6" d="M1102.84,317.62l-1.27.17c-.5-16.65-.32-33.3,0-50,1.35,3.35.68,6.86.71,10.28.07,11.39-.07,22.78-.09,34.17C1102.21,314.08,1101.84,315.94,1102.84,317.62Z"/><path class="cls-5" d="M787.51,112.22a412.26,412.26,0,0,1-43.2,0C758.71,111.51,773.11,111.58,787.51,112.22Z"/><path class="cls-12" d="M876.06,315.64c-12.38,0-24.77-.05-37.15-.13-1.79,0-3.58-.33-5.37-.51l42.7.1A1.72,1.72,0,0,1,876.06,315.64Z"/><path class="cls-8" d="M447.45,191.85l-.12-1.67c5.32-1,10.68-.26,16-.42,0,.4,0,.8.05,1.2-1.6,0-3.59-.49-4.75.26C454.92,193.65,451.24,192.73,447.45,191.85Z"/><path class="cls-9" d="M1453.29,230.75c3.91-1,.68-5.11,2.91-6.87.37,7.94.37,8-7.31,7.92-2.57,0-5.26.62-7.71-.79Z"/><path class="cls-9" d="M230.36,112.86l-16.09.21-2.67-.55C217.87,111.8,224.14,111.08,230.36,112.86Z"/><path class="cls-5" d="M1465.29,145.9a8.11,8.11,0,0,1-8,.11Z"/><path class="cls-6" d="M1117.09,112.45a15,15,0,0,1-6.46,0A8.6,8.6,0,0,1,1117.09,112.45Z"/><path class="cls-6" d="M1106,112.33a4.53,4.53,0,0,1-3.3,0A2.69,2.69,0,0,1,1106,112.33Z"/><path class="cls-9" d="M83,130l0,3.68A3,3,0,0,1,83,130Z"/><path class="cls-6" d="M1152.15,113.19l-2.49-.81c.85-.87,1.73-.48,2.61-.07A6.42,6.42,0,0,1,1152.15,113.19Z"/><path class="cls-5" d="M1470.36,146.25c-.11.57.21,1.31-.65,1.57-.13-.6-.27-1.2-.4-1.8Z"/><path class="cls-4" d="M676.34,211.92l-.89.87a4.23,4.23,0,0,0-.19-.78l.27-.31A.69.69,0,0,1,676.34,211.92Z"/><path class="cls-9" d="M82.88,114a.45.45,0,0,1,0,.75c-.1-.19-.21-.36-.29-.55C82.6,114.17,82.78,114.07,82.88,114Z"/><path class="cls-5" d="M262.63,150.25l.59-1.35C263,149.35,262.82,149.8,262.63,150.25Z"/><path class="cls-6" d="M1147.14,112.48l-.29.19-.3-.17C1146.73,112,1146.92,112,1147.14,112.48Z"/><path class="cls-5" d="M1251.09,346.81c-.33-.46-.14-.75.32-.93A3.54,3.54,0,0,1,1251.09,346.81Z"/><path class="cls-10" d="M366.26,324.9a67.21,67.21,0,0,1,14.18.09c0,8.65-.36,17.32.1,25.94.26,4.87-.92,7.51-6,7.6l-6.21.09-.35-.24-.3.27c-2.33-.43-1.43-2.28-1.43-3.57C366.19,345,366.24,335,366.26,324.9Z"/><path class="cls-10" d="M462.8,308c-1-6.39-.28-12.84-.53-19.25-.08-2-.29-3.94-.45-5.91,2.18,2.3,4.33,4.14,8,3.75a4,4,0,0,1,4.58,4.14,112.19,112.19,0,0,0,1,13.36c.54,3.44-.84,3.88-3.68,3.74S465.78,308,462.8,308Z"/><path class="cls-10" d="M478,341c.13-3.63.33-7.26.37-10.89,0-2.38.81-3.31,3.32-2.71a15,15,0,0,0,5.41.39c5-.66,6.75,1.16,6.41,6.29-.45,6.84-.11,6.82-6.76,6.89-2.81,0-5.61.24-8.42.37A.34.34,0,0,1,478,341Z"/><path class="cls-10" d="M431.74,237.91l0-2.14a6.72,6.72,0,0,0-.09-5.9v-2c1.31-4.92.46-9.92.56-14.89,2.43,3.65.77,7.73,1.16,11.59.25,2.47.12,5,.17,7.47-.05,4.24-.05,8.47-.16,12.7,0,1.53.53,3.41-1.7,4.06l0-9A1.22,1.22,0,0,0,431.74,237.91Z"/><path class="cls-10" d="M476.62,236q.19,8.4.38,16.8c-2-1.09-1.61-3-1.63-4.77-.06-5-.06-10.11-.09-15.16s.05-10.24.14-15.36c0-1.58-.49-3.38,1.29-4.48Z"/><path class="cls-3" d="M675.41,225.89q0,14.42,0,28.83c-6.73,1.45-13.45.58-20.23.25-10.45-.51-20.94-.11-31.42-.14-16.11-.05-14.26-1.13-14.46,14l-34-.05q0-68,0-136c0-7,0-6.95,7.16-6.95q59.74,0,119.49,0c2.48,0,5-.29,7.32,1,.07,8.28.06,16.55.26,24.83.07,2.65-.88,3.36-3.43,3.34-16.57-.12-33.13-.1-49.69-.12-1.36-1.4-2.72-1.39-4.07,0l-14.89,0a3.43,3.43,0,0,0-5.13,0h-3.9c-1.68-3.14-3.37-3.13-5.07,0h-3.94c-2.67-3.32-5.31-2.86-7.93.07q0,28-.08,56.09c0,2.83.22,5.68,0,8.48-.39,4.11,1.13,5.47,5.32,5.43,17.46-.2,34.92-.07,52.38-.06C671.23,224.93,673.41,224.78,675.41,225.89Zm-65.22-69.58-.52.16v53h.52Z"/><path class="cls-10" d="M709.19,318.75q0,5.07.07,10.14l-90.43-.06c-7.47,0-7.48,0-7.39-7.65,0-1.5.12-3,.18-4.49l91.26.14C705.16,316.84,707.63,316.33,709.19,318.75Z"/><path class="cls-10" d="M575.32,356.88c-12,0-12,0-12-12.13q0-37.92,0-75.82l11.84-.16Q575.27,312.83,575.32,356.88Z"/><path class="cls-10" d="M609.32,268.82c.2-15.12-1.65-14,14.46-14,10.48,0,21-.37,31.42.14,6.78.33,13.5,1.2,20.23-.25.24,3.65-2.58,1.85-3.84,1.85-18.3,0-36.61,0-54.9-.29-4.41-.08-5.89.83-5.87,5.62.1,17.62-.36,35.25-.61,52.88-1.34-2.49-.69-5.19-.71-7.79C609.38,294.27,609.37,281.54,609.32,268.82Z"/><path class="cls-10" d="M575.22,357.69a3.28,3.28,0,0,0,.14-.76c41.91,0,83.82-.1,125.73.07,4.94,0,6.93-1.17,6.49-6.37s-.12-10.31-.05-15.46c0-1.56-.6-3.47,1.61-4.23,1,7-2,14-.58,20.73s-1.65,6.21-6.16,6.2Q638.82,357.66,575.22,357.69Z"/><path class="cls-4" d="M709.19,318.75c-1.56-2.42-4-1.91-6.31-1.92l-91.26-.14c1.93-1.48,4.17-.79,6.26-.8q42.82-.08,85.66-.07c1.82,0,3.64-.19,5.45-.3C709.06,316.6,709.12,317.67,709.19,318.75Z"/><path class="cls-4" d="M479.48,159c0-13.29,0-26.57-.17-39.85-.06-4,1.8-5.33,5.4-5.36,12.27-.08,24.53.16,36.8-.72,7.13-.51,7.9.66,8,8,0,1.33.07,2.66.11,4l-.24,2.18a7.2,7.2,0,0,0-.88-.33l-1.07-.89c-10.15,0-20.3,0-30.45-.14-3.49-.07-4.69,1.14-4.6,4.61.19,7.49-.18,15,.14,22.46.2,4.65-1.5,6.4-6,6A62.63,62.63,0,0,0,479.48,159Z"/><path class="cls-4" d="M381.36,150.78c-14.48.51-11.82.53-12-11.19-.11-6.47.17-13-.09-19.41-.16-4,1-5.59,5.28-5.51,12,.25,23.9.2,35.84,0,3.81-.06,5.56,1,5.24,5.06-.14,1.78-.94,4.15,1.81,5.05l-.09,4c-1.49-2.33-3.62-3-6.35-3-8.16.14-16.34.26-24.49,0-4.34-.16-5.43,1.53-5.26,5.53C381.5,137.77,381.34,144.28,381.36,150.78Z"/><path class="cls-4" d="M464.54,189.84c1.29-8,.71-16.09.69-24.14,0-3.48.88-5.53,4.69-4.91,3.46.56,6.36-1.38,9.58-1.87-.07,8.31-.38,16.62-.1,24.91.16,4.93-1.69,6.6-6.39,6.12C470.21,189.66,467.37,189.86,464.54,189.84Z"/><path class="cls-4" d="M447.45,191.85c3.79.88,7.47,1.8,11.21-.63,1.16-.75,3.15-.21,4.75-.26-.07,6.43-1.51,12.8-1,19.26.23,2.78-1.33,3.84-3.71,4.26a18.75,18.75,0,0,1-2,.25c-9.31.72-10.26-.27-8.87-9.58.62-4.15-.78-8.19-.46-12.3Z"/><path class="cls-4" d="M426.39,212.62a43.61,43.61,0,0,1-10.89,0l-.21-21.71c9.41-.09,9.4-.09,10.08,9.34C425.67,204.36,425,208.57,426.39,212.62Z"/><path class="cls-12" d="M476.62,236l.09-23,14.37-.23c2.2-1.17,1.14-3.24,1.17-4.88.2-9.42.23-18.84.32-28.27,1.62,11.26.49,22.56.61,33.84-3.94.84-7.93.36-11.89.25-3.07-.09-3.94,1-4,4C477.19,223.85,478.27,230,476.62,236Z"/><path class="cls-10" d="M529.36,127.14l.24-2.18a6,6,0,0,0,.72-.13c.06,7.81,0,15.62.25,23.42.08,2.83-.78,3.83-3.65,3.65-4.48-.28-9-.22-13.45-.3,3.32-1.63,6.85-.67,10.27-.74,4-.08,5.71-1.84,5.64-5.8C529.27,139.09,529.35,133.12,529.36,127.14Z"/><path class="cls-4" d="M492.57,179.69c-.09,9.43-.12,18.85-.32,28.27,0,1.64,1,3.71-1.17,4.88.88-10.15.06-20.31.38-30.46.06-1.77-.56-3.69.83-5.27C492.38,178,492.48,178.83,492.57,179.69Z"/><path class="cls-2" d="M432.24,212.94c-.1,5,.75,10-.56,14.89q-.12-7.44-.25-14.88A3.66,3.66,0,0,1,432.24,212.94Z"/><path class="cls-10" d="M527.41,125.92l1.07.89Z"/><path class="cls-3" d="M213.62,126.93c3.74,1.91,7.73.41,11.59.84,1.94.22,3.91.3,5.86.44.06,4.65.29,9.3.1,13.93-.12,3.11,1.05,3.9,4,4,4.42.09,8.94-1,13.26.79q0,13.46.1,26.91,0,10,0,20.09l-.48,54.58-16.66.43c-2.16,6.56-.31,13.31-.91,19.94l-16,.06-83.12,0-33.93,0-1.12-.06c1.21-6.6.91-13.27.91-19.92,0-38.64.12-77.29-.08-115.94,0-5.15,1.54-6.4,6.52-6.36C140.33,126.89,177,126.86,213.62,126.93Zm-81,101.85.07.05c0,3,.13,6-.15,9-.43,4.53,1.24,6.11,5.92,6,17.8-.22,35.6-.07,53.4-.07,7.5,0,7.5,0,7.53-7.51,0-5.6,1.33-7,6.9-7.35a31.26,31.26,0,0,1,3.49,0c2.46.13,3.65-.82,3.64-3.45q-.07-30.45,0-60.89c0-2.56-1-3.59-3.56-3.56-3.49,0-7-.15-10.47-.24.39-4.66-1.54-5.88-6.31-5.79-20.06.34-40.13.13-60.19.12-2,1-1.44,2.81-1.45,4.38q0,32.61,0,65.22C131.44,226.14,131.16,227.72,132.62,228.78Z"/><path class="cls-10" d="M96.34,268.84l1.12.06c-1.35,2.11-1,4.49-1,6.79q-.06,40.59-.1,81.18c-4.25-.73-9.06,1.88-12.78-2.09-.39-18.61-.54-37.21-.08-55.82a3,3,0,0,0,0-4.23c0-.59,0-1.19,0-1.78,2-5.77.6-11.72.85-17.59.28-6.47.07-6.48,6.53-6.51Z"/><path class="cls-3" d="M214,122.34l-.12,3.48A4,4,0,0,1,214,122.34Z"/><path class="cls-2" d="M297.16,357.77a1.58,1.58,0,0,0,.13-.86q.06-44,.13-88l34,0,1.87,0q.11,42.58.25,85.16c0,2.55-.41,4-3.5,3.93C319.07,357.73,308.12,357.8,297.16,357.77Z"/><path class="cls-4" d="M285.16,268.61l.21-91.88c0-7.94,0-8,7.71-7.95,6.32,0,12.53-1.21,18.88-1.14,5.51.06,10.89,1.32,16.38,1.14,2.39-.08,3.09,1.29,3.18,3.47.1,2.4-.76,5.08,1.53,7,0,.53,0,1.06.05,1.59l-1.72.12-34-.14-.88,1c.24,3.65.49,7.31.73,11-1,1.21-.81,2.62-.71,4,0,1.71,0,3.42,0,5.14-.11,1.4-.3,2.82.73,4V267.7c-3.8,1.79-7.88.84-11.82,1.23Z"/><path class="cls-10" d="M331.38,181l1.72-.12q.15,38.74.29,77.47c0,3.5-.08,7-.12,10.49l-1.87,0Q331.39,224.92,331.38,181Z"/><path class="cls-2" d="M96.38,356.87q0-40.59.1-81.18c0-2.3-.37-4.68,1-6.79l33.93,0,1.08,1q-.06,40.83-.12,81.68c0,6.29,0,6.33-6.49,6.32-9.8,0-19.59-.08-29.38-.13A3.47,3.47,0,0,0,96.38,356.87Z"/><path class="cls-6" d="M230.49,268.85c.6-6.63-1.25-13.38.91-19.94v13.34l1,.05c0-2.93.05-5.86,0-8.79-.06-2.43.85-3.48,3.44-3.7,10.95-.91,13.4,1.56,11.46,12.47-.89,5-5.52,5.58-9.41,6.44C235.55,269.25,233,268.84,230.49,268.85Z"/><path class="cls-10" d="M132.47,269.85l-1.08-1,83.12,0c-1.68,1.62-3.77,1-5.71,1Q170.64,269.91,132.47,269.85Z"/><path class="cls-4" d="M96.38,356.87a3.47,3.47,0,0,1,.1.85l-13,.1c0-1,.08-2,.13-3C87.32,358.75,92.13,356.14,96.38,356.87Z"/><path class="cls-4" d="M1221.34,269q-.06-74.67-.17-149.36c0-3.66,1.13-5,4.86-4.93q18.24.27,36.47,0c3.57,0,5.31,1,5,4.78-.15,1.89-.65,4.11,1.64,5.34,0,.33,0,.66,0,1l-10.77,0c-6.65,0-13.31.2-19.94-.12-4.29-.2-5.27,1.47-5.26,5.48q.19,68.81.1,137.61h-.06Z"/><path class="cls-10" d="M1258.42,125.85l10.77,0c.08,31.42.36,62.84.2,94.25-.2,36.9-.78,73.79-1.19,110.68l-16.75,0c3-3.63,7.07-1.3,10.61-1.68s5.38-1.52,5.35-5.46c-.14-18.27-.08-36.53-.1-54.8q0-66.52,0-133.06c0-7.74,0-7.73-7.68-9.09C1259.22,126.53,1258.84,126.11,1258.42,125.85Z"/><path class="cls-3" d="M1053.47,248.93l-.45,19.89-132.67,0-.82-1v-5c2.68-1,1.76-3.33,1.76-5.15q.06-65.42,0-130.83h86.12c.53,2.3,2.39,1.94,4,2a68.13,68.13,0,0,0,9.48-.05c9.36-1.2,18.25,2.88,27.55,2.13,2.13-.18,2.9,1.2,2.89,3.16,0,2.84.08,5.67,0,8.5-.1,4.41,2,6.25,6.38,6.32,9.63.15,9.64.24,9.64,10,0,27.48-.08,55,.1,82.44,0,4.36-1.17,5.86-5.63,5.77C1059.11,247,1055.45,244.92,1053.47,248.93ZM955.77,155c-3.1.31-2.35,2.74-2.36,4.57q-.06,33.36,0,66.73c0,1.72-.57,3.82,1.92,4.54,0,2.83.27,5.68.06,8.49-.27,3.6,1.31,4.5,4.68,4.51,17.31.07,34.6-.35,51.91.69,10.93.65,9.44,1.08,9.36-9.07,0-4.63,1.72-6.91,6.45-6.63,1.16.07,2.34-.09,3.5,0,3,.27,4-1.11,4-4.09-.11-19.49-.16-39,0-58.47,0-3.63-1.4-4.67-4.74-4.44s-6.7,0-9.14-2.87c.11-3.36-1.69-3.88-4.72-3.87C996.37,155.19,976.07,155.07,955.77,155Z"/><path class="cls-10" d="M919.53,267.85l.82,1,0,88c-12.89.17-12.88.17-12.89-12.66l-.06-75.3,0-.07C911.43,268.41,915.61,269.82,919.53,267.85Z"/><path class="cls-2" d="M875.33,329.64h.74c0,8-.05,16,.2,23.92.11,3.46-1,4.55-4.5,4.53-21.45-.15-42.9-.06-64.35-.1-17.79,0-35.57-.16-53.36-.24l-.55-1q0-43.92-.1-87.86h.09l35.82-.06q.16,23,.34,46l-.18,1.8c0,1.66-.09,3.32-.09,5,0,7.22,0,7.21,7.32,7.21h77.64Z"/><path class="cls-8" d="M753.51,356.77l.55,1c-13.76.87-13.8.87-13.78-12.61q0-38.19.16-76.37a5.22,5.22,0,0,0,.79,0l.21.3q0,37.92-.05,75.85C741.38,357.18,741.38,357.18,753.51,356.77Z"/><path class="cls-4" d="M675.41,225.89c-2-1.11-4.18-1-6.34-1-17.46,0-34.92-.14-52.38.06-4.19,0-5.71-1.32-5.32-5.43.26-2.8,0-5.65,0-8.48l2.28.22c1,2.42,3.14,1.4,4.77,1.41q24.62.16,49.23.09a13.23,13.23,0,0,1,7.49,1.85Z"/><path class="cls-11" d="M675.18,214.65a13.23,13.23,0,0,0-7.49-1.85q-24.62.1-49.23-.09c-1.63,0-3.77,1-4.77-1.41l10.69-.06c1.65,1.11,3.52.68,5.3.69q22.8.06,45.58.08a4.23,4.23,0,0,1,.19.78Z"/><path class="cls-10" d="M611.49,155c2.62-2.93,5.26-3.39,7.93-.07Z"/><path class="cls-10" d="M623.36,154.92c1.7-3.12,3.39-3.13,5.07,0Z"/><path class="cls-10" d="M632.33,154.93a3.43,3.43,0,0,1,5.13,0Z"/><path class="cls-10" d="M652.35,154.92c1.35-1.4,2.71-1.41,4.07,0Z"/><path class="cls-3" d="M789.32,268.86l-35.82.06q0-15.5-.08-31c0-35.49.08-71-.08-106.46,0-4.34,1.09-5.87,5.59-5.67,8,.35,16,.18,24,0,2.71,0,4.89.5,6.36,2.91.07,16.62.18,33.23.18,49.85Q789.45,223.73,789.32,268.86Z"/><path class="cls-4" d="M789.28,128.76c-1.47-2.41-3.65-3-6.36-2.91-8,.13-16,.3-24,0-4.5-.2-5.61,1.33-5.59,5.67.16,35.49.08,71,.08,106.46q0,15.49.08,31h-.09l-12,.14-.21-.3q.06-71.61.11-143.22c0-2.33.11-4.66,0-7-.12-2.83,1.22-3.76,3.92-3.76,12.64,0,25.28,0,37.93-.08,3.2,0,4.61,1.09,4.37,4.35-.1,1.41-.42,3.14,1.69,3.61Z"/><path class="cls-2" d="M1267.31,268.76c0,18.27,0,36.53.1,54.8,0,3.94-1.75,5.06-5.35,5.46s-7.59-1.95-10.61,1.68c-.07,3.32-.38,6.65-.16,9.94.24,3.61-1.29,4.45-4.65,4.46-10.39,0-10.39.14-11.45,9.91-1.2,1.66-2.89,1.93-4.83,1.92q-38.37-.06-76.75-.05c-1.76,0-3.83.4-4.32-2.2-1.74-2.87,1.7-7.11-1.74-9.09-2.86-1.64-6.45.33-9.75.08a25,25,0,0,0-3.45.17c-1.62-3.48-.79-7.09-.45-10.64.24-2.58-.59-3.57-3.24-3.47-4.43.17-8.87.08-13.3.1-1.41-3-.57-6.11-.46-9.2.08-2,.91-4.42-2-5.39l-.18-.18c.31-.54.87-1.07.87-1.61q-.09-23.28-.27-46.58l.06,0,33.95-.11,1.9.1.27,41.08c0,.59,0,1.18,0,1.76l0,1.25c0,.8.06,1.61.84,2.11,4.64,1.68,9.52.1,14.21,1l.78.73a76.77,76.77,0,0,1-.13,9.48c-.42,3.24,1,3.51,3.62,3.49,12-.09,24,0,36,0,13,0,13,0,12.18-13.14a2.45,2.45,0,0,1,.26-.51l.46-1.36,1.57.14a53.17,53.17,0,0,1,6.44.06c4.33.52,5.73-1.11,5.64-5.53-.28-13.54-.12-27.09-.14-40.64h.06Z"/><path class="cls-10" d="M1151.25,268.88l-1.9-.1q0-67.62,0-135.23c0-6.7,0-6.71-6.91-6.71l-26.94,0c1.46-1.58,3.39-1,5.14-1,10.23,0,20.46,0,30.69,0l.24,2q-.11,25.65-.18,51.32Q1151.29,224,1151.25,268.88Z"/><path class="cls-13" d="M1151.25,268.88q.07-44.87.15-89.71,0-25.66.18-51.32c.92,1.72.59,3.58.59,5.39q0,85.42,0,170.85c0,2,.36,4-.68,5.87Z"/><path class="cls-13" d="M1151.66,118.84a7.19,7.19,0,0,1,.39-5C1152.34,115.55,1152.55,117.24,1151.66,118.84Z"/><path class="cls-13" d="M1151.55,125.91c0-.68,0-1.36.07-2A1.32,1.32,0,0,1,1151.55,125.91Z"/><path class="cls-13" d="M1151.53,313l0-1.25a5.12,5.12,0,0,1,.24.85C1151.75,312.7,1151.6,312.84,1151.53,313Z"/><path class="cls-3" d="M1115.51,126.88l26.94,0c6.9,0,6.91,0,6.91,6.71q0,67.6,0,135.23l-33.95.11Q1115.46,197.88,1115.51,126.88Z"/><path class="cls-10" d="M1115.34,268.87q.15,23.29.27,46.58c0,.54-.56,1.07-.87,1.61-11.39,0-11.37,0-11.36-11.25,0-10.45.18-20.91-.1-31.36-.12-4.32,1.13-6.19,5.59-5.63A53.67,53.67,0,0,0,1115.34,268.87Z"/><path class="cls-2" d="M1314.11,357.69a2.18,2.18,0,0,0,.13-.84q0-41.27.11-82.54c0-1.93-1.12-4.5,1.94-5.44h33c0,13.86,0,27.73.1,41.59,0,1.83-.82,4.15,2,4.81l-1.72,1.34c-.11,2.66,0,5.34-.36,8-.5,4.27,1.37,5.36,5.42,5.29,13-.21,26-.08,39-.08s12.94,0,12.38-13.06a2.2,2.2,0,0,0-.18-1c3.15,0,6.32-.21,9.44.09,4,.38,5.08-1.34,5-5.15-.16-13.25,0-26.5,0-39.75l29.12-.11c4.87,2.36,3.84,6.85,3.85,10.9q0,20.37,0,40.74c0,6.41,0,6.28-6.65,6.52-2.44.08-5.34-1.37-7.3,1.43q-.17,7.1-.35,14.18l-7.49.11c-7.91.1-7.27-1.46-7.27,7.55,0,2.74.88,5.64-3.85,5.62C1385,357.73,1349.57,357.74,1314.11,357.69Z"/><path class="cls-6" d="M248.54,193.9q0-10,0-20.09c2-3,0-6.54,1.58-10.22.8,13.38,1.68,26.13-.18,39.06C248.56,199.77,250.5,196.51,248.54,193.9Z"/><polygon class="cls-2" points="367.66 358.65 367.96 358.38 368.31 358.62 367.99 358.74 367.66 358.65"/><path class="cls-3" d="M333.2,126.82a198.06,198.06,0,0,1,0,21.93c-10.47,0-20.95-.1-31.42.11-3.65.07-4.73-1.43-4.47-4.73.14-1.65,0-3.33,0-5,0-12.89,0-13.09,13-13.16C318,125.94,325.66,124.84,333.2,126.82Z"/><path class="cls-3" d="M1349.29,268.87h-33l-2-5-.06-10c0-1,0-2,0-3.08,0-1.31,0-2.61,0-3.92-.17-6.65,1-13.35-.69-19.94V156.77a1.76,1.76,0,0,0,0-2.81q0-8.61,0-17.2c1.7-3.16.52-6.58.85-9.86h110.26c3.49,1.48,7.15.5,10.72.59,3.11.07,4.47,1.07,4.31,4.35-.24,4.61-.11,9.24-.14,13.86,1.71,3.18,4.66,3.5,7.74,3.11,4.69-.6,6.36,1,6.26,6-.3,15.62-.11,31.26-.11,46.89,0,10.71,0,10.81-10.39,11.15-4,.13-5.81,1.88-5.64,5.82a35.36,35.36,0,0,0,0,4c.84,5.21-1.48,6.66-6.43,6.37-2.41-.14-5.74-1.88-7.46,1.76a5.63,5.63,0,0,0-.35,1.4c.13,4.74-1.39,10.71.92,13.87s8.61.43,13.12,1.07c-4,1.58-8.21.08-12.3,1.77,2.59,0,5.19.14,7.77,0,3.31-.23,4.82.83,4.76,4.46s-1.6,7.95.9,10.57,6.64.77,10.07,1c2.23.15,4.12,1.13,4.55,3.16s-1.77,2.37-3.33,2.81l-29.12.11a9,9,0,0,0-2.21-1c-2.58-.39-5.49.68-7.7-1.25s-.63-5.09-1.34-7.55c-1.08-3.77-2.46-6.63-7.65-6.44-12.28.46-24.59.15-36.89.14-4.33,0-8.65,0-13,0-1.92,0-1.37.76-.37,1.55-2,.31-1.89,1.79-1.89,3.28C1349.42,262.75,1349.34,265.81,1349.29,268.87Zm60.1-113a4.18,4.18,0,0,0-3.56-.83l-55.89,0c-2.73,0-2.59,2-2.59,3.87q0,23.67,0,47.33c0,1.47-.19,3.1,1.83,3.56.08.37.16.73.23,1.1l-.06,7.06c-.1,8.88-.1,8.88,8.72,8.88H1395c12.76,0,12.76,0,12.17-13.06a4,4,0,0,1,.15-1c3.66-.43,7.5,1.1,11-1,3.42.1,3-2.38,3-4.5q0-17.65-.07-35.33c0-1.32.1-2.65.11-4C1421.32,155.84,1421.31,155.84,1409.39,155.87Z"/><path class="cls-4" d="M1313.5,156.77q0,35.08,0,70.18c.16,6.65-1,13.34.69,19.94,0,1.31,0,2.61,0,3.92a2,2,0,0,0,0,3.08l.06,10c-.49,4.61-3.35,5.59-7.44,5.07a30.14,30.14,0,0,0-5.35.22l-.22-.32.12-142.3c0-1.5-.08-3,0-4.49.43-5.33,2.44-7.2,7.77-7.21l107.35,0c6.48,0,6.49,0,6.89,6.74.06,1.17,0,2.35,1,3.19,0,.72.08,1.43.13,2.15H1314.3c-1.87,3.15-.65,6.56-.85,9.86q0,8.6,0,17.19C1313.5,154.89,1313.5,155.83,1313.5,156.77Z"/><path class="cls-10" d="M1423.45,230.78c1.72-3.64,5-1.9,7.46-1.76,4.95.29,7.27-1.16,6.43-6.37a35.36,35.36,0,0,1,0-4c-.17-3.94,1.63-5.69,5.64-5.82,10.4-.34,10.39-.44,10.39-11.15,0-15.63-.19-31.27.11-46.89.1-5-1.57-6.6-6.26-6-3.08.39-6,.07-7.74-3.11,4.31.06,8.63.24,12.94.14,2.38-.05,3.21.82,3.21,3.16q0,31.63.1,63.28c0,2.69-1.19,3.44-3.66,3.29-3.15-.2-6.31-.06-9.46-.23-3.78-.2-5.17,1.69-4.2,5.07s.77,6.87.86,10.33C1434,231.43,1428.71,231,1423.45,230.78Z"/><path class="cls-5" d="M1458.73,151.1c.73.08,1.18.47,1,1.21a1.13,1.13,0,0,1-1.36,1,1.27,1.27,0,0,1-.79-.93C1457.55,151.66,1458,151.23,1458.73,151.1Z"/><path class="cls-10" d="M1233.26,268.81c0,13.55-.14,27.1.14,40.64.09,4.42-1.31,6.05-5.64,5.53a53.17,53.17,0,0,0-6.44-.06q0-23,0-45.94Z"/><path class="cls-4" d="M919.53,267.85c-3.92,2-8.1.56-12.14,1q0-74.44-.08-148.88c0-3.87,1.08-5.22,5.08-5.21q59,.19,117.9,0c3.88,0,5.57,1.11,5.16,5.11-.16,1.57-.5,3.36.82,4.75,0,.75,0,1.5.07,2.24h-115c-2.34.54-1.87,2.45-1.87,4q0,66,.1,132Z"/><path class="cls-10" d="M1149.29,354.68c.49,2.6,2.56,2.19,4.32,2.2q38.39,0,76.75.05c1.94,0,3.63-.26,4.83-1.92,0,.93.07,1.85.1,2.78-27.44,0-54.88,0-82.32-.05C1151.27,357.73,1147.4,359.4,1149.29,354.68Z"/><path class="cls-2" d="M416.06,253.1a90.44,90.44,0,0,1-.16,20.67A142.61,142.61,0,0,1,416.06,253.1Z"/><path class="cls-2" d="M431.68,229.87a6.72,6.72,0,0,1,.09,5.9l-.45-3.89Z"/><path class="cls-2" d="M431.74,237.91a1.22,1.22,0,0,1,0,1.88Z"/><path class="cls-10" d="M285.41,268.93c3.94-.39,8,.56,11.82-1.23.06.4.12.79.19,1.19q-.07,44-.13,88c-14,0-11.85.12-11.89-11.75C285.33,319.75,285.4,294.34,285.41,268.93Z"/><path class="cls-10" d="M874.35,328.87H796.71c-7.31,0-7.32,0-7.32-7.21,0-1.66.06-3.32.09-5l76.32.15c8.67,0,8.67,0,8.64,8.55C874.43,326.54,874.38,327.71,874.35,328.87Z"/><path class="cls-10" d="M875.33,329.64l-1-.78Z"/><path class="cls-10" d="M1301.45,269.15a30.14,30.14,0,0,1,5.35-.22c4.09.52,7-.46,7.44-5.07l2,5c-3.06.94-1.94,3.51-1.94,5.44q-.13,41.28-.11,82.54c-12.87.1-12.89.1-12.88-12.75Q1301.39,306.63,1301.45,269.15Z"/><path class="cls-4" d="M83.53,294.73a3,3,0,0,1,0,4.23C83.52,297.55,83.52,296.14,83.53,294.73Z"/><path class="cls-4" d="M1167.36,316.85l-.78-.73q26.36-.71,52.71,0a2,2,0,0,0-.25.51Z"/><path class="cls-10" d="M610.19,156.31v53.13h-.52v-53Z"/><path class="cls-6" d="M132.89,155.08c20.06,0,40.13.22,60.19-.12,4.77-.09,6.7,1.13,6.31,5.79q.06,4.56.14,9.12c-.17,3.29-.33,6.57-.5,9.86-.86-1.38-.52-2.91-.55-4.39-.11-6.6-.11-6.79-6.59-6.34-13,.9-25.95.85-38.91.57-4.57-.1-5.6,1.51-5.55,5.75.18,17.83,0,35.66,0,53.49l-14.75,0-.07-.05c0-2,.15-4,.16-6Q132.84,188.94,132.89,155.08Z"/><path class="cls-4" d="M132.69,228.83l14.75,0c17.33.29,34.66.52,52-.19,2.45-.41,2-2.37,2-3.93q0-25.23,0-50.46c0-1.73-.17-3.35-1.83-4.36q-.08-4.56-.14-9.12c3.49.09,7,.28,10.47.24,2.54,0,3.57,1,3.56,3.56q-.07,30.45,0,60.89c0,2.63-1.18,3.58-3.64,3.45a31.26,31.26,0,0,0-3.49,0c-5.57.34-6.88,1.75-6.9,7.35,0,7.51,0,7.52-7.53,7.51-17.8,0-35.6-.15-53.4.07-4.68.06-6.35-1.52-5.92-6C132.82,234.83,132.65,231.82,132.69,228.83Z"/><path class="cls-10" d="M132.89,155.08q-.06,33.87-.11,67.73c0,2-.11,4-.16,6-1.46-1.06-1.18-2.64-1.18-4.1q0-32.61,0-65.22C131.45,157.89,130.91,156,132.89,155.08Z"/><path class="cls-3" d="M297.42,268.89c-.07-.4-.13-.79-.19-1.19q0-30.88,0-61.76c.14-1.41.44-2.85-.73-4,0-1.72,0-3.43,0-5.14,1.2-1.17.89-2.61.71-4-.24-3.65-.49-7.31-.73-11l.88-1,34,.14q0,43.94,0,87.87Z"/><path class="cls-10" d="M296.51,201.92c1.17,1.17.87,2.61.73,4C296.21,204.74,296.4,203.32,296.51,201.92Z"/><path class="cls-10" d="M297.2,192.76c.18,1.41.49,2.85-.71,4C296.39,195.38,296.21,194,297.2,192.76Z"/><path class="cls-10" d="M297.35,180.84l-.88,1Z"/><path class="cls-3" d="M1267.31,268.76l-34,.06q0-68.81-.1-137.61c0-4,1-5.68,5.26-5.48,6.63.32,13.29.1,19.94.12.42.26.8.68,1.25.76,7.68,1.36,7.68,1.35,7.68,9.09Q1267.34,202.24,1267.31,268.76Z"/><path class="cls-4" d="M1021.39,159c2.44,2.87,5.78,3.09,9.14,2.86s4.77.81,4.74,4.44c-.11,19.49-.06,39,0,58.47,0,3-1,4.36-4,4.09-1.16-.1-2.34.06-3.5,0-4.73-.28-6.49,2-6.45,6.63.08,10.15,1.57,9.72-9.36,9.07-17.31-1-34.6-.62-51.91-.69-3.37,0-4.95-.91-4.68-4.51.21-2.81,0-5.66-.06-8.49,0-.56.07-1.12.1-1.68l14-.34,49,.22c1.55,0,3.17,0,2.69-2.32a.48.48,0,0,0,0-.72q-.06-6.72-.11-13.44c.07-2.14.19-4.28.2-6.42Q1021.29,182.57,1021.39,159Z"/><path class="cls-5" d="M969.42,228.83l-14,.34c0-20.25-.07-40.5,0-60.75,0-4.47-.51-9,.37-13.41,20.3.06,40.6.18,60.9.1,3,0,4.83.51,4.72,3.87q-.12,23.6-.24,47.17c0,2.14-.13,4.28-.2,6.43-1.05-1.69-.57-3.57-.58-5.35-.06-11.14-.2-22.28,0-33.42.07-3.6-1-4.28-4.45-4.22q-20.19.41-40.4.11c-4.2-.07-5.38,1.34-5.33,5.41.2,15.8.09,31.59.09,47.38C970.32,224.65,970.55,226.83,969.42,228.83Z"/><path class="cls-10" d="M919.53,262.83q-.06-66-.1-131.95c0-1.58-.47-3.49,1.87-4q0,65.42,0,130.83C921.29,259.5,922.21,261.84,919.53,262.83Z"/><path class="cls-10" d="M955.77,155c-.88,4.45-.36,8.94-.37,13.41,0,20.25,0,40.5,0,60.75,0,.56-.06,1.12-.1,1.68-2.49-.72-1.92-2.82-1.92-4.54q0-33.36,0-66.73C953.42,157.75,952.67,155.32,955.77,155Z"/><path class="cls-10" d="M741.44,269.05l12-.14q.06,43.93.1,87.86c-12.13.41-12.13.41-12.12-11.87Q741.42,307,741.44,269.05Z"/><path class="cls-10" d="M1167.36,316.85l51.68-.2c.84,13.14.84,13.14-12.19,13.14-12,0-24-.06-36,0-2.58,0-4-.25-3.62-3.49A76.77,76.77,0,0,0,1167.36,316.85Z"/><path class="cls-5" d="M1349.29,268.87c0-3.06.13-6.12.13-9.18,0-1.49-.11-3,1.88-3.28l2.07.09,8.91,0,39.08,0,5,.25.12,14.05-.33,6.19c.07-5.86-3.41-6.5-8.32-6.34-9.76.31-19.56.28-29.32-.1-3.83-.14-4.27,1.26-4.23,4.48.14,13.26,0,26.52,0,39.78l-2,.4-10.89,0c-2.87-.66-2-3-2-4.81C1349.32,296.6,1349.32,282.73,1349.29,268.87Z"/><path class="cls-10" d="M1406.14,316.73c.56,13.06.56,13.06-12.38,13.06s-26-.13-39,.08c-4,.07-5.92-1-5.42-5.29.31-2.63.25-5.31.35-8Z"/><path class="cls-10" d="M1401.36,256.51l-39.08,0a13.35,13.35,0,0,0-8.91,0l-2.07-.09c-1-.79-1.54-1.53.38-1.55,4.32,0,8.64,0,13,0,12.3,0,24.61.32,36.89-.14,5.19-.19,6.57,2.67,7.65,6.44.71,2.46-1,5.5,1.34,7.55s5.12.86,7.7,1.25a9,9,0,0,1,2.21,1c0,13.25-.17,26.5,0,39.75,0,3.81-1,5.53-5,5.15-3.12-.3-6.29-.08-9.44-.09l0-.09.41-1a3.1,3.1,0,0,0,1-2.7c0-12.81,0-25.63,0-38.44a9.52,9.52,0,0,0-.88-2.76l-.12-14.05C1404.75,255.42,1403.07,255.65,1401.36,256.51Z"/><path class="cls-4" d="M1406.14,316.73l-56.43-.12,1.73-1.34,10.89,0c14,1.37,28.08.42,42.12.44l1.54,0,0,.09A2.2,2.2,0,0,1,1406.14,316.73Z"/><path class="cls-5" d="M1349.41,210.88c-.07-.37-.15-.73-.23-1.1.09-2.15.24-4.3.26-6.45q.27-24.17.5-48.31l55.89,0c.73,17.9.72,35.8.31,53.71-1.07-1.68-.6-3.56-.61-5.35-.06-10-.15-20,0-29.93,0-3.46-1.15-4.63-4.63-4.57-9.31.18-18.62,0-27.93,0-8.13,0-9.21.59-8.35,8.61,1.2,11.17-.79,22.23-.3,33.34Z"/><path class="cls-4" d="M1406.14,208.75c.41-17.91.42-35.81-.31-53.71a4.18,4.18,0,0,1,3.56.83c-.16,6.93-2,14.92,9.34,14.49.8,0,1.64,1,2.46,1.57q0,17.67.07,35.33c0,2.12.46,4.6-3,4.5-3.77-.81-7.62-2.38-11,1a3.55,3.55,0,0,0-.14,1c-2.12,1.51-1.93,3.8-1.71,5.89.43,4.18-1.32,5.41-5.39,5.35-13.57-.21-27.15-.1-40.73-.08-4.24,0-9.1,1.07-8.5-5.91,0-.32-1-.72-1.49-1.08l.06-7.06,14.9,0,.18.16c10.66,1.37,21.38.26,32.07.57,3,.09,6.24.87,9.22-.64Z"/><path class="cls-10" d="M1421.19,171.93c-.82-.55-1.66-1.6-2.46-1.57-11.37.43-9.5-7.56-9.34-14.49,11.92,0,11.93,0,11.91,12.09C1421.29,169.28,1421.23,170.61,1421.19,171.93Z"/><path class="cls-10" d="M1349.35,217.94c.52.36,1.52.76,1.49,1.08-.6,7,4.26,5.92,8.5,5.91,13.58,0,27.16-.13,40.73.08,4.07.06,5.82-1.17,5.39-5.35-.22-2.09-.41-4.38,1.71-5.89.58,13,.58,13-12.18,13.06h-36.92C1349.25,226.82,1349.25,226.82,1349.35,217.94Z"/><path class="cls-10" d="M1349.94,155q-.24,24.15-.5,48.31c0,2.15-.17,4.3-.26,6.45-2-.46-1.83-2.09-1.83-3.56q0-23.67,0-47.33C1347.35,157,1347.21,155.06,1349.94,155Z"/><path class="cls-10" d="M1407.31,212.8c3.37-3.42,7.22-1.85,11-1C1414.81,213.9,1411,212.37,1407.31,212.8Z"/><path class="cls-10" d="M1314.18,246.89c-1.73-6.6-.53-13.29-.69-19.94C1315.2,233.54,1314,240.24,1314.18,246.89Z"/><path class="cls-10" d="M1313.45,136.76c.2-3.3-1-6.71.85-9.86C1314,130.18,1315.15,133.6,1313.45,136.76Z"/><path class="cls-10" d="M1313.5,156.77c0-.94,0-1.88,0-2.82A1.77,1.77,0,0,1,1313.5,156.77Z"/><path class="cls-10" d="M1314.18,253.89a2,2,0,0,1,0-3.08C1314.19,251.84,1314.18,252.86,1314.18,253.89Z"/><path class="cls-1" d="M199.42,228.62c-17.32.71-34.65.48-52,.19,0-17.83.17-35.66,0-53.49-.05-4.24,1-5.85,5.55-5.75,13,.28,25.94.33,38.91-.57,6.48-.45,6.48-.26,6.59,6.34,0,1.48-.31,3,.55,4.39,0,2.1,0,4.19,0,6.29l-.32.14.31.53q0,19.67.07,39.32l-.32.19.36.56C199.21,227.38,199.32,228,199.42,228.62ZM162.61,199c0,4.14.09,8.29,0,12.44-.06,2.28.67,3.34,3.1,3.29q7.22-.13,14.43.07c2.59.07,3.46-1,3.42-3.53q-.18-12.19,0-24.39c0-2.36-.87-3.24-3.2-3.21-5,.07-10,.08-14.93-.12-2.39-.1-2.78,1.07-2.76,3C162.64,190.66,162.61,194.81,162.61,199Z"/><path class="cls-11" d="M199,186c0-2.1,0-4.19,0-6.29.17-3.29.33-6.57.5-9.86,1.66,1,1.83,2.63,1.83,4.36q0,25.23,0,50.46c0,1.56.5,3.52-2,3.93-.1-.62-.21-1.24-.31-1.86a.47.47,0,0,0,0-.75q0-19.66-.07-39.32l.22-.33Z"/><path class="cls-1" d="M969.42,228.83c1.13-2,.9-4.18.9-6.34,0-15.79.11-31.58-.09-47.38-.05-4.07,1.13-5.48,5.33-5.41q20.19.3,40.4-.11c3.42-.06,4.52.62,4.45,4.22-.24,11.14-.1,22.28,0,33.42,0,1.78-.47,3.66.58,5.35q.06,6.71.11,13.43a2.31,2.31,0,0,0-.28.17,5.77,5.77,0,0,0,.29.55c.48,2.37-1.14,2.32-2.69,2.32Zm36.11-29h-.09c0-4.16-.12-8.32,0-12.47.11-2.65-.93-3.5-3.48-3.43-4.66.14-9.32.11-14,0-2.38-.06-3.28,1-3.28,3.24,0,8.14,0,16.29-.13,24.44,0,2.24.65,3.34,3.12,3.27,4.82-.15,9.65-.17,14.47,0,2.71.09,3.43-1.09,3.35-3.56C1005.44,207.47,1005.53,203.64,1005.53,199.82Z"/><path class="cls-5" d="M1021.07,226.73a5.77,5.77,0,0,1-.29-.55,2.31,2.31,0,0,1,.28-.17A.48.48,0,0,1,1021.07,226.73Z"/><path class="cls-1" d="M1406.13,277c.07-5.86-3.41-6.49-8.32-6.34-9.76.32-19.56.28-29.32-.09-3.83-.15-4.27,1.25-4.23,4.48.13,13.25,0,26.51,0,39.77,11.6.09,23.21.17,34.81.3,1.79,0,3.66-.46,5.36.54l1.54,0c.14-.32.27-.65.41-1Zm-18.38,23.75c-8.41.25-8.41.38-8.37-8,0-6.53,4.08-9.32,10.65-7.48,1.56.43,1.62,1.32,1.58,2.56-.06,1.65,0,3.3,0,5.73a19.05,19.05,0,0,0,.17,2.7C1392.31,299.52,1391,300.64,1387.75,300.74Z"/><path class="cls-8" d="M1406.4,314.71l-.27-37.71.33-6.19a9.52,9.52,0,0,1,.88,2.76c.06,12.81,0,25.63,0,38.44A3.1,3.1,0,0,1,1406.4,314.71Z"/><path class="cls-2" d="M1364.28,314.82c11.6.09,23.21.16,34.82.3,1.78,0,3.65-.46,5.35.54-14,0-28.09.93-42.12-.44Z"/><path class="cls-3" d="M1353.37,256.5a13.35,13.35,0,0,1,8.91,0Z"/><path class="cls-3" d="M1401.36,256.51c1.71-.86,3.39-1.09,5,.25Z"/><path class="cls-1" d="M1406.14,208.75c-.12.73-.24,1.46-.35,2.19l-41.3.07-.18-.16c-.49-11.11,1.5-22.17.3-33.34-.86-8,.22-8.63,8.35-8.61,9.31,0,18.62.18,27.93,0,3.48-.06,4.68,1.11,4.63,4.57-.14,10,0,19.95,0,29.93C1405.54,205.19,1405.07,207.07,1406.14,208.75Zm-27-19.88c.32,4.46-1.42,8.68,5,8.24,7.11-.49,6.83-.1,7.25-7.41.28-4.85-1.28-6.1-6-6.14C1380.22,183.51,1378.17,185,1379.12,188.87Z"/><path class="cls-14" d="M1364.49,211l41.3-.07c-3,1.51-6.18.73-9.23.64C1385.87,211.27,1375.15,212.38,1364.49,211Z"/><path class="cls-6" d="M199.07,226a.47.47,0,0,1,0,.75l-.36-.56Z"/><path class="cls-6" d="M199,186l.21.34-.22.33-.31-.53Z"/></svg>